G04 #@! TF.GenerationSoftware,KiCad,Pcbnew,(5.1.6-0-10_14)*
G04 #@! TF.CreationDate,2020-07-17T21:00:32+10:00*
G04 #@! TF.ProjectId,pcb-v2,7063622d-7632-42e6-9b69-6361645f7063,rev?*
G04 #@! TF.SameCoordinates,Original*
G04 #@! TF.FileFunction,Soldermask,Top*
G04 #@! TF.FilePolarity,Negative*
%FSLAX46Y46*%
G04 Gerber Fmt 4.6, Leading zero omitted, Abs format (unit mm)*
G04 Created by KiCad (PCBNEW (5.1.6-0-10_14)) date 2020-07-17 21:00:32*
%MOMM*%
%LPD*%
G01*
G04 APERTURE LIST*
%ADD10C,0.100000*%
G04 APERTURE END LIST*
D10*
G36*
X66593028Y-121635103D02*
G01*
X66747900Y-121699253D01*
X66887281Y-121792385D01*
X67005815Y-121910919D01*
X67098947Y-122050300D01*
X67163097Y-122205172D01*
X67195800Y-122369584D01*
X67195800Y-122537216D01*
X67163097Y-122701628D01*
X67098947Y-122856500D01*
X67005815Y-122995881D01*
X66887281Y-123114415D01*
X66747900Y-123207547D01*
X66593028Y-123271697D01*
X66428616Y-123304400D01*
X66260984Y-123304400D01*
X66096572Y-123271697D01*
X65941700Y-123207547D01*
X65802319Y-123114415D01*
X65683785Y-122995881D01*
X65590653Y-122856500D01*
X65526503Y-122701628D01*
X65493800Y-122537216D01*
X65493800Y-122369584D01*
X65526503Y-122205172D01*
X65590653Y-122050300D01*
X65683785Y-121910919D01*
X65802319Y-121792385D01*
X65941700Y-121699253D01*
X66096572Y-121635103D01*
X66260984Y-121602400D01*
X66428616Y-121602400D01*
X66593028Y-121635103D01*
G37*
G36*
X76539826Y-119485037D02*
G01*
X76709665Y-119536557D01*
X76709667Y-119536558D01*
X76866189Y-119620221D01*
X77003386Y-119732814D01*
X77086648Y-119834271D01*
X77115978Y-119870009D01*
X77199643Y-120026534D01*
X77251163Y-120196373D01*
X77264200Y-120328742D01*
X77264200Y-120717257D01*
X77251163Y-120849626D01*
X77199643Y-121019466D01*
X77115978Y-121175991D01*
X77086648Y-121211729D01*
X77003386Y-121313186D01*
X76908450Y-121391097D01*
X76866191Y-121425778D01*
X76709666Y-121509443D01*
X76539827Y-121560963D01*
X76363200Y-121578359D01*
X76186574Y-121560963D01*
X76016735Y-121509443D01*
X75860210Y-121425778D01*
X75723015Y-121313185D01*
X75610422Y-121175991D01*
X75526757Y-121019466D01*
X75475237Y-120849627D01*
X75462200Y-120717258D01*
X75462200Y-120328743D01*
X75475237Y-120196374D01*
X75526757Y-120026535D01*
X75610422Y-119870010D01*
X75610423Y-119870009D01*
X75723014Y-119732814D01*
X75824471Y-119649552D01*
X75860209Y-119620222D01*
X76016734Y-119536557D01*
X76186573Y-119485037D01*
X76363200Y-119467641D01*
X76539826Y-119485037D01*
G37*
G36*
X74621800Y-119475989D02*
G01*
X74654852Y-119486015D01*
X74685303Y-119502292D01*
X74711999Y-119524201D01*
X74733908Y-119550897D01*
X74750185Y-119581348D01*
X74760211Y-119614400D01*
X74764200Y-119654903D01*
X74764200Y-121391097D01*
X74760211Y-121431600D01*
X74750185Y-121464652D01*
X74733908Y-121495103D01*
X74711999Y-121521799D01*
X74685303Y-121543708D01*
X74654852Y-121559985D01*
X74621800Y-121570011D01*
X74581297Y-121574000D01*
X73145103Y-121574000D01*
X73104600Y-121570011D01*
X73071548Y-121559985D01*
X73041097Y-121543708D01*
X73014401Y-121521799D01*
X72992492Y-121495103D01*
X72976215Y-121464652D01*
X72966189Y-121431600D01*
X72962200Y-121391097D01*
X72962200Y-119654903D01*
X72966189Y-119614400D01*
X72976215Y-119581348D01*
X72992492Y-119550897D01*
X73014401Y-119524201D01*
X73041097Y-119502292D01*
X73071548Y-119486015D01*
X73104600Y-119475989D01*
X73145103Y-119472000D01*
X74581297Y-119472000D01*
X74621800Y-119475989D01*
G37*
G36*
X58611227Y-116487837D02*
G01*
X58781066Y-116539357D01*
X58937591Y-116623022D01*
X58973329Y-116652352D01*
X59074786Y-116735614D01*
X59158048Y-116837071D01*
X59187378Y-116872809D01*
X59271043Y-117029334D01*
X59322563Y-117199174D01*
X59335600Y-117331543D01*
X59335600Y-117720058D01*
X59322563Y-117852427D01*
X59271043Y-118022266D01*
X59187378Y-118178791D01*
X59158048Y-118214529D01*
X59074786Y-118315986D01*
X58937589Y-118428579D01*
X58781067Y-118512242D01*
X58781065Y-118512243D01*
X58611226Y-118563763D01*
X58434600Y-118581159D01*
X58257973Y-118563763D01*
X58088134Y-118512243D01*
X57931609Y-118428578D01*
X57889350Y-118393897D01*
X57794414Y-118315986D01*
X57681821Y-118178789D01*
X57598158Y-118022267D01*
X57590154Y-117995881D01*
X57546637Y-117852426D01*
X57533600Y-117720057D01*
X57533600Y-117331542D01*
X57546637Y-117199173D01*
X57598157Y-117029334D01*
X57681822Y-116872809D01*
X57794415Y-116735615D01*
X57931610Y-116623022D01*
X58088135Y-116539357D01*
X58257974Y-116487837D01*
X58434600Y-116470441D01*
X58611227Y-116487837D01*
G37*
G36*
X61693200Y-116478789D02*
G01*
X61726252Y-116488815D01*
X61756703Y-116505092D01*
X61783399Y-116527001D01*
X61805308Y-116553697D01*
X61821585Y-116584148D01*
X61831611Y-116617200D01*
X61835600Y-116657703D01*
X61835600Y-118393897D01*
X61831611Y-118434400D01*
X61821585Y-118467452D01*
X61805308Y-118497903D01*
X61783399Y-118524599D01*
X61756703Y-118546508D01*
X61726252Y-118562785D01*
X61693200Y-118572811D01*
X61652697Y-118576800D01*
X60216503Y-118576800D01*
X60176000Y-118572811D01*
X60142948Y-118562785D01*
X60112497Y-118546508D01*
X60085801Y-118524599D01*
X60063892Y-118497903D01*
X60047615Y-118467452D01*
X60037589Y-118434400D01*
X60033600Y-118393897D01*
X60033600Y-116657703D01*
X60037589Y-116617200D01*
X60047615Y-116584148D01*
X60063892Y-116553697D01*
X60085801Y-116527001D01*
X60112497Y-116505092D01*
X60142948Y-116488815D01*
X60176000Y-116478789D01*
X60216503Y-116474800D01*
X61652697Y-116474800D01*
X61693200Y-116478789D01*
G37*
G36*
X66593028Y-116635103D02*
G01*
X66747900Y-116699253D01*
X66887281Y-116792385D01*
X67005815Y-116910919D01*
X67098947Y-117050300D01*
X67163097Y-117205172D01*
X67195800Y-117369584D01*
X67195800Y-117537216D01*
X67163097Y-117701628D01*
X67098947Y-117856500D01*
X67005815Y-117995881D01*
X66887281Y-118114415D01*
X66747900Y-118207547D01*
X66593028Y-118271697D01*
X66428616Y-118304400D01*
X66260984Y-118304400D01*
X66096572Y-118271697D01*
X65941700Y-118207547D01*
X65802319Y-118114415D01*
X65683785Y-117995881D01*
X65590653Y-117856500D01*
X65526503Y-117701628D01*
X65493800Y-117537216D01*
X65493800Y-117369584D01*
X65526503Y-117205172D01*
X65590653Y-117050300D01*
X65683785Y-116910919D01*
X65802319Y-116792385D01*
X65941700Y-116699253D01*
X66096572Y-116635103D01*
X66260984Y-116602400D01*
X66428616Y-116602400D01*
X66593028Y-116635103D01*
G37*
G36*
X71389859Y-115736860D02*
G01*
X71526532Y-115793472D01*
X71649535Y-115875660D01*
X71754140Y-115980265D01*
X71829178Y-116092568D01*
X71836329Y-116103270D01*
X71892940Y-116239941D01*
X71921800Y-116385032D01*
X71921800Y-116532968D01*
X71892940Y-116678059D01*
X71845585Y-116792385D01*
X71836328Y-116814732D01*
X71754140Y-116937735D01*
X71649535Y-117042340D01*
X71526532Y-117124528D01*
X71526531Y-117124529D01*
X71526530Y-117124529D01*
X71389859Y-117181140D01*
X71244768Y-117210000D01*
X71096832Y-117210000D01*
X70951741Y-117181140D01*
X70815070Y-117124529D01*
X70815069Y-117124529D01*
X70815068Y-117124528D01*
X70692065Y-117042340D01*
X70587460Y-116937735D01*
X70505272Y-116814732D01*
X70496016Y-116792385D01*
X70448660Y-116678059D01*
X70419800Y-116532968D01*
X70419800Y-116385032D01*
X70448660Y-116239941D01*
X70505271Y-116103270D01*
X70512422Y-116092568D01*
X70587460Y-115980265D01*
X70692065Y-115875660D01*
X70815068Y-115793472D01*
X70951741Y-115736860D01*
X71096832Y-115708000D01*
X71244768Y-115708000D01*
X71389859Y-115736860D01*
G37*
G36*
X79009859Y-115736860D02*
G01*
X79146532Y-115793472D01*
X79269535Y-115875660D01*
X79374140Y-115980265D01*
X79449178Y-116092568D01*
X79456329Y-116103270D01*
X79512940Y-116239941D01*
X79541800Y-116385032D01*
X79541800Y-116532968D01*
X79512940Y-116678059D01*
X79465585Y-116792385D01*
X79456328Y-116814732D01*
X79374140Y-116937735D01*
X79269535Y-117042340D01*
X79146532Y-117124528D01*
X79146531Y-117124529D01*
X79146530Y-117124529D01*
X79009859Y-117181140D01*
X78864768Y-117210000D01*
X78716832Y-117210000D01*
X78571741Y-117181140D01*
X78435070Y-117124529D01*
X78435069Y-117124529D01*
X78435068Y-117124528D01*
X78312065Y-117042340D01*
X78207460Y-116937735D01*
X78125272Y-116814732D01*
X78116016Y-116792385D01*
X78068660Y-116678059D01*
X78039800Y-116532968D01*
X78039800Y-116385032D01*
X78068660Y-116239941D01*
X78125271Y-116103270D01*
X78132422Y-116092568D01*
X78207460Y-115980265D01*
X78312065Y-115875660D01*
X78435068Y-115793472D01*
X78571741Y-115736860D01*
X78716832Y-115708000D01*
X78864768Y-115708000D01*
X79009859Y-115736860D01*
G37*
G36*
X142413749Y-113856916D02*
G01*
X142524934Y-113879032D01*
X142734403Y-113965797D01*
X142922920Y-114091760D01*
X143083240Y-114252080D01*
X143209203Y-114440597D01*
X143295968Y-114650066D01*
X143340200Y-114872436D01*
X143340200Y-115099164D01*
X143295968Y-115321534D01*
X143209203Y-115531003D01*
X143083240Y-115719520D01*
X142922920Y-115879840D01*
X142734403Y-116005803D01*
X142524934Y-116092568D01*
X142471141Y-116103268D01*
X142302565Y-116136800D01*
X142075835Y-116136800D01*
X141907259Y-116103268D01*
X141853466Y-116092568D01*
X141643997Y-116005803D01*
X141455480Y-115879840D01*
X141295160Y-115719520D01*
X141169197Y-115531003D01*
X141082432Y-115321534D01*
X141038200Y-115099164D01*
X141038200Y-114872436D01*
X141082432Y-114650066D01*
X141169197Y-114440597D01*
X141295160Y-114252080D01*
X141455480Y-114091760D01*
X141643997Y-113965797D01*
X141853466Y-113879032D01*
X141964651Y-113856916D01*
X142075835Y-113834800D01*
X142302565Y-113834800D01*
X142413749Y-113856916D01*
G37*
G36*
X139276200Y-115984400D02*
G01*
X136974200Y-115984400D01*
X136974200Y-113682400D01*
X139276200Y-113682400D01*
X139276200Y-115984400D01*
G37*
G36*
X78999059Y-113526260D02*
G01*
X79135732Y-113582872D01*
X79258735Y-113665060D01*
X79363340Y-113769665D01*
X79445528Y-113892668D01*
X79502140Y-114029341D01*
X79531000Y-114174433D01*
X79531000Y-114322367D01*
X79502140Y-114467459D01*
X79445528Y-114604132D01*
X79363340Y-114727135D01*
X79258735Y-114831740D01*
X79135732Y-114913928D01*
X79135731Y-114913929D01*
X79135730Y-114913929D01*
X78999059Y-114970540D01*
X78853968Y-114999400D01*
X78706032Y-114999400D01*
X78560941Y-114970540D01*
X78424270Y-114913929D01*
X78424269Y-114913929D01*
X78424268Y-114913928D01*
X78301265Y-114831740D01*
X78196660Y-114727135D01*
X78114472Y-114604132D01*
X78057860Y-114467459D01*
X78029000Y-114322367D01*
X78029000Y-114174433D01*
X78057860Y-114029341D01*
X78114472Y-113892668D01*
X78196660Y-113769665D01*
X78301265Y-113665060D01*
X78424268Y-113582872D01*
X78560941Y-113526260D01*
X78706032Y-113497400D01*
X78853968Y-113497400D01*
X78999059Y-113526260D01*
G37*
G36*
X71379059Y-113526260D02*
G01*
X71515732Y-113582872D01*
X71638735Y-113665060D01*
X71743340Y-113769665D01*
X71825528Y-113892668D01*
X71882140Y-114029341D01*
X71911000Y-114174433D01*
X71911000Y-114322367D01*
X71882140Y-114467459D01*
X71825528Y-114604132D01*
X71743340Y-114727135D01*
X71638735Y-114831740D01*
X71515732Y-114913928D01*
X71515731Y-114913929D01*
X71515730Y-114913929D01*
X71379059Y-114970540D01*
X71233968Y-114999400D01*
X71086032Y-114999400D01*
X70940941Y-114970540D01*
X70804270Y-114913929D01*
X70804269Y-114913929D01*
X70804268Y-114913928D01*
X70681265Y-114831740D01*
X70576660Y-114727135D01*
X70494472Y-114604132D01*
X70437860Y-114467459D01*
X70409000Y-114322367D01*
X70409000Y-114174433D01*
X70437860Y-114029341D01*
X70494472Y-113892668D01*
X70576660Y-113769665D01*
X70681265Y-113665060D01*
X70804268Y-113582872D01*
X70940941Y-113526260D01*
X71086032Y-113497400D01*
X71233968Y-113497400D01*
X71379059Y-113526260D01*
G37*
G36*
X79561000Y-112849400D02*
G01*
X77959000Y-112849400D01*
X77959000Y-111247400D01*
X79561000Y-111247400D01*
X79561000Y-112849400D01*
G37*
G36*
X71373642Y-111278181D02*
G01*
X71506220Y-111333097D01*
X71519416Y-111338563D01*
X71650608Y-111426222D01*
X71762178Y-111537792D01*
X71789722Y-111579015D01*
X71849838Y-111668986D01*
X71910219Y-111814758D01*
X71941000Y-111969507D01*
X71941000Y-112127293D01*
X71910219Y-112282042D01*
X71849838Y-112427814D01*
X71849837Y-112427816D01*
X71762178Y-112559008D01*
X71650608Y-112670578D01*
X71519416Y-112758237D01*
X71519415Y-112758238D01*
X71519414Y-112758238D01*
X71373642Y-112818619D01*
X71218893Y-112849400D01*
X71061107Y-112849400D01*
X70906358Y-112818619D01*
X70760586Y-112758238D01*
X70760585Y-112758238D01*
X70760584Y-112758237D01*
X70629392Y-112670578D01*
X70517822Y-112559008D01*
X70430163Y-112427816D01*
X70430162Y-112427814D01*
X70369781Y-112282042D01*
X70339000Y-112127293D01*
X70339000Y-111969507D01*
X70369781Y-111814758D01*
X70430162Y-111668986D01*
X70490278Y-111579015D01*
X70517822Y-111537792D01*
X70629392Y-111426222D01*
X70760584Y-111338563D01*
X70773780Y-111333097D01*
X70906358Y-111278181D01*
X71061107Y-111247400D01*
X71218893Y-111247400D01*
X71373642Y-111278181D01*
G37*
G36*
X127908628Y-110179703D02*
G01*
X128063500Y-110243853D01*
X128202881Y-110336985D01*
X128321415Y-110455519D01*
X128414547Y-110594900D01*
X128478697Y-110749772D01*
X128511400Y-110914184D01*
X128511400Y-111081816D01*
X128478697Y-111246228D01*
X128414547Y-111401100D01*
X128321415Y-111540481D01*
X128202881Y-111659015D01*
X128063500Y-111752147D01*
X127908628Y-111816297D01*
X127744216Y-111849000D01*
X127576584Y-111849000D01*
X127412172Y-111816297D01*
X127257300Y-111752147D01*
X127117919Y-111659015D01*
X126999385Y-111540481D01*
X126906253Y-111401100D01*
X126842103Y-111246228D01*
X126809400Y-111081816D01*
X126809400Y-110914184D01*
X126842103Y-110749772D01*
X126906253Y-110594900D01*
X126999385Y-110455519D01*
X127117919Y-110336985D01*
X127257300Y-110243853D01*
X127412172Y-110179703D01*
X127576584Y-110147000D01*
X127744216Y-110147000D01*
X127908628Y-110179703D01*
G37*
G36*
X124352628Y-110179703D02*
G01*
X124507500Y-110243853D01*
X124646881Y-110336985D01*
X124765415Y-110455519D01*
X124858547Y-110594900D01*
X124922697Y-110749772D01*
X124955400Y-110914184D01*
X124955400Y-111081816D01*
X124922697Y-111246228D01*
X124858547Y-111401100D01*
X124765415Y-111540481D01*
X124646881Y-111659015D01*
X124507500Y-111752147D01*
X124352628Y-111816297D01*
X124188216Y-111849000D01*
X124020584Y-111849000D01*
X123856172Y-111816297D01*
X123701300Y-111752147D01*
X123561919Y-111659015D01*
X123443385Y-111540481D01*
X123350253Y-111401100D01*
X123286103Y-111246228D01*
X123253400Y-111081816D01*
X123253400Y-110914184D01*
X123286103Y-110749772D01*
X123350253Y-110594900D01*
X123443385Y-110455519D01*
X123561919Y-110336985D01*
X123701300Y-110243853D01*
X123856172Y-110179703D01*
X124020584Y-110147000D01*
X124188216Y-110147000D01*
X124352628Y-110179703D01*
G37*
G36*
X131439228Y-110099703D02*
G01*
X131594100Y-110163853D01*
X131733481Y-110256985D01*
X131852015Y-110375519D01*
X131945147Y-110514900D01*
X132009297Y-110669772D01*
X132042000Y-110834184D01*
X132042000Y-111001816D01*
X132009297Y-111166228D01*
X131945147Y-111321100D01*
X131852015Y-111460481D01*
X131733481Y-111579015D01*
X131594100Y-111672147D01*
X131439228Y-111736297D01*
X131274816Y-111769000D01*
X131107184Y-111769000D01*
X130942772Y-111736297D01*
X130787900Y-111672147D01*
X130648519Y-111579015D01*
X130529985Y-111460481D01*
X130436853Y-111321100D01*
X130372703Y-111166228D01*
X130340000Y-111001816D01*
X130340000Y-110834184D01*
X130372703Y-110669772D01*
X130436853Y-110514900D01*
X130529985Y-110375519D01*
X130648519Y-110256985D01*
X130787900Y-110163853D01*
X130942772Y-110099703D01*
X131107184Y-110067000D01*
X131274816Y-110067000D01*
X131439228Y-110099703D01*
G37*
G36*
X63564227Y-109477037D02*
G01*
X63734066Y-109528557D01*
X63890591Y-109612222D01*
X63911450Y-109629341D01*
X64027786Y-109724814D01*
X64111048Y-109826271D01*
X64140378Y-109862009D01*
X64224043Y-110018534D01*
X64275563Y-110188374D01*
X64275563Y-110188376D01*
X64288600Y-110320741D01*
X64288600Y-110659260D01*
X64282082Y-110725442D01*
X64275563Y-110791627D01*
X64224043Y-110961466D01*
X64140378Y-111117991D01*
X64111048Y-111153729D01*
X64027786Y-111255186D01*
X63890589Y-111367779D01*
X63734067Y-111451442D01*
X63734065Y-111451443D01*
X63564226Y-111502963D01*
X63387600Y-111520359D01*
X63210973Y-111502963D01*
X63041134Y-111451443D01*
X62884609Y-111367778D01*
X62827728Y-111321097D01*
X62747414Y-111255186D01*
X62634821Y-111117989D01*
X62551158Y-110961467D01*
X62536815Y-110914185D01*
X62499637Y-110791626D01*
X62493118Y-110725441D01*
X62486600Y-110659259D01*
X62486600Y-110320740D01*
X62499637Y-110188375D01*
X62499637Y-110188373D01*
X62551157Y-110018534D01*
X62634822Y-109862009D01*
X62747415Y-109724815D01*
X62884610Y-109612222D01*
X63041135Y-109528557D01*
X63210974Y-109477037D01*
X63387600Y-109459641D01*
X63564227Y-109477037D01*
G37*
G36*
X61064227Y-109477037D02*
G01*
X61234066Y-109528557D01*
X61390591Y-109612222D01*
X61411450Y-109629341D01*
X61527786Y-109724814D01*
X61611048Y-109826271D01*
X61640378Y-109862009D01*
X61724043Y-110018534D01*
X61775563Y-110188374D01*
X61775563Y-110188376D01*
X61788600Y-110320741D01*
X61788600Y-110659260D01*
X61782082Y-110725442D01*
X61775563Y-110791627D01*
X61724043Y-110961466D01*
X61640378Y-111117991D01*
X61611048Y-111153729D01*
X61527786Y-111255186D01*
X61390589Y-111367779D01*
X61234067Y-111451442D01*
X61234065Y-111451443D01*
X61064226Y-111502963D01*
X60887600Y-111520359D01*
X60710973Y-111502963D01*
X60541134Y-111451443D01*
X60384609Y-111367778D01*
X60327728Y-111321097D01*
X60247414Y-111255186D01*
X60134821Y-111117989D01*
X60051158Y-110961467D01*
X60036815Y-110914185D01*
X59999637Y-110791626D01*
X59993118Y-110725441D01*
X59986600Y-110659259D01*
X59986600Y-110320740D01*
X59999637Y-110188375D01*
X59999637Y-110188373D01*
X60051157Y-110018534D01*
X60134822Y-109862009D01*
X60247415Y-109724815D01*
X60384610Y-109612222D01*
X60541135Y-109528557D01*
X60710974Y-109477037D01*
X60887600Y-109459641D01*
X61064227Y-109477037D01*
G37*
G36*
X58564227Y-109477037D02*
G01*
X58734066Y-109528557D01*
X58890591Y-109612222D01*
X58911450Y-109629341D01*
X59027786Y-109724814D01*
X59111048Y-109826271D01*
X59140378Y-109862009D01*
X59224043Y-110018534D01*
X59275563Y-110188374D01*
X59275563Y-110188376D01*
X59288600Y-110320741D01*
X59288600Y-110659260D01*
X59282082Y-110725442D01*
X59275563Y-110791627D01*
X59224043Y-110961466D01*
X59140378Y-111117991D01*
X59111048Y-111153729D01*
X59027786Y-111255186D01*
X58890589Y-111367779D01*
X58734067Y-111451442D01*
X58734065Y-111451443D01*
X58564226Y-111502963D01*
X58387600Y-111520359D01*
X58210973Y-111502963D01*
X58041134Y-111451443D01*
X57884609Y-111367778D01*
X57827728Y-111321097D01*
X57747414Y-111255186D01*
X57634821Y-111117989D01*
X57551158Y-110961467D01*
X57536815Y-110914185D01*
X57499637Y-110791626D01*
X57493118Y-110725441D01*
X57486600Y-110659259D01*
X57486600Y-110320740D01*
X57499637Y-110188375D01*
X57499637Y-110188373D01*
X57551157Y-110018534D01*
X57634822Y-109862009D01*
X57747415Y-109724815D01*
X57884610Y-109612222D01*
X58041135Y-109528557D01*
X58210974Y-109477037D01*
X58387600Y-109459641D01*
X58564227Y-109477037D01*
G37*
G36*
X66646200Y-109467989D02*
G01*
X66679252Y-109478015D01*
X66709703Y-109494292D01*
X66736399Y-109516201D01*
X66758308Y-109542897D01*
X66774585Y-109573348D01*
X66784611Y-109606400D01*
X66788600Y-109646903D01*
X66788600Y-111333097D01*
X66784611Y-111373600D01*
X66774585Y-111406652D01*
X66758308Y-111437103D01*
X66736399Y-111463799D01*
X66709703Y-111485708D01*
X66679252Y-111501985D01*
X66646200Y-111512011D01*
X66605697Y-111516000D01*
X65169503Y-111516000D01*
X65129000Y-111512011D01*
X65095948Y-111501985D01*
X65065497Y-111485708D01*
X65038801Y-111463799D01*
X65016892Y-111437103D01*
X65000615Y-111406652D01*
X64990589Y-111373600D01*
X64986600Y-111333097D01*
X64986600Y-109646903D01*
X64990589Y-109606400D01*
X65000615Y-109573348D01*
X65016892Y-109542897D01*
X65038801Y-109516201D01*
X65065497Y-109494292D01*
X65095948Y-109478015D01*
X65129000Y-109467989D01*
X65169503Y-109464000D01*
X66605697Y-109464000D01*
X66646200Y-109467989D01*
G37*
G36*
X78999059Y-109126260D02*
G01*
X79135732Y-109182872D01*
X79258735Y-109265060D01*
X79363340Y-109369665D01*
X79435737Y-109478015D01*
X79445529Y-109492670D01*
X79502140Y-109629341D01*
X79531000Y-109774432D01*
X79531000Y-109922368D01*
X79502140Y-110067459D01*
X79452055Y-110188376D01*
X79445528Y-110204132D01*
X79363340Y-110327135D01*
X79258735Y-110431740D01*
X79135732Y-110513928D01*
X79135731Y-110513929D01*
X79135730Y-110513929D01*
X78999059Y-110570540D01*
X78853968Y-110599400D01*
X78706032Y-110599400D01*
X78560941Y-110570540D01*
X78424270Y-110513929D01*
X78424269Y-110513929D01*
X78424268Y-110513928D01*
X78301265Y-110431740D01*
X78196660Y-110327135D01*
X78114472Y-110204132D01*
X78107946Y-110188376D01*
X78057860Y-110067459D01*
X78029000Y-109922368D01*
X78029000Y-109774432D01*
X78057860Y-109629341D01*
X78114471Y-109492670D01*
X78124263Y-109478015D01*
X78196660Y-109369665D01*
X78301265Y-109265060D01*
X78424268Y-109182872D01*
X78560941Y-109126260D01*
X78706032Y-109097400D01*
X78853968Y-109097400D01*
X78999059Y-109126260D01*
G37*
G36*
X71379059Y-109126260D02*
G01*
X71515732Y-109182872D01*
X71638735Y-109265060D01*
X71743340Y-109369665D01*
X71815737Y-109478015D01*
X71825529Y-109492670D01*
X71882140Y-109629341D01*
X71911000Y-109774432D01*
X71911000Y-109922368D01*
X71882140Y-110067459D01*
X71832055Y-110188376D01*
X71825528Y-110204132D01*
X71743340Y-110327135D01*
X71638735Y-110431740D01*
X71515732Y-110513928D01*
X71515731Y-110513929D01*
X71515730Y-110513929D01*
X71379059Y-110570540D01*
X71233968Y-110599400D01*
X71086032Y-110599400D01*
X70940941Y-110570540D01*
X70804270Y-110513929D01*
X70804269Y-110513929D01*
X70804268Y-110513928D01*
X70681265Y-110431740D01*
X70576660Y-110327135D01*
X70494472Y-110204132D01*
X70487946Y-110188376D01*
X70437860Y-110067459D01*
X70409000Y-109922368D01*
X70409000Y-109774432D01*
X70437860Y-109629341D01*
X70494471Y-109492670D01*
X70504263Y-109478015D01*
X70576660Y-109369665D01*
X70681265Y-109265060D01*
X70804268Y-109182872D01*
X70940941Y-109126260D01*
X71086032Y-109097400D01*
X71233968Y-109097400D01*
X71379059Y-109126260D01*
G37*
G36*
X117537912Y-107503927D02*
G01*
X117687212Y-107533624D01*
X117851184Y-107601544D01*
X117998754Y-107700147D01*
X118124253Y-107825646D01*
X118222856Y-107973216D01*
X118290776Y-108137188D01*
X118325400Y-108311259D01*
X118325400Y-108488741D01*
X118290776Y-108662812D01*
X118222856Y-108826784D01*
X118124253Y-108974354D01*
X117998754Y-109099853D01*
X117851184Y-109198456D01*
X117687212Y-109266376D01*
X117537912Y-109296073D01*
X117513142Y-109301000D01*
X117335658Y-109301000D01*
X117310888Y-109296073D01*
X117161588Y-109266376D01*
X116997616Y-109198456D01*
X116850046Y-109099853D01*
X116724547Y-108974354D01*
X116625944Y-108826784D01*
X116558024Y-108662812D01*
X116523400Y-108488741D01*
X116523400Y-108311259D01*
X116558024Y-108137188D01*
X116625944Y-107973216D01*
X116724547Y-107825646D01*
X116850046Y-107700147D01*
X116997616Y-107601544D01*
X117161588Y-107533624D01*
X117310888Y-107503927D01*
X117335658Y-107499000D01*
X117513142Y-107499000D01*
X117537912Y-107503927D01*
G37*
G36*
X89597912Y-107503927D02*
G01*
X89747212Y-107533624D01*
X89911184Y-107601544D01*
X90058754Y-107700147D01*
X90184253Y-107825646D01*
X90282856Y-107973216D01*
X90350776Y-108137188D01*
X90385400Y-108311259D01*
X90385400Y-108488741D01*
X90350776Y-108662812D01*
X90282856Y-108826784D01*
X90184253Y-108974354D01*
X90058754Y-109099853D01*
X89911184Y-109198456D01*
X89747212Y-109266376D01*
X89597912Y-109296073D01*
X89573142Y-109301000D01*
X89395658Y-109301000D01*
X89370888Y-109296073D01*
X89221588Y-109266376D01*
X89057616Y-109198456D01*
X88910046Y-109099853D01*
X88784547Y-108974354D01*
X88685944Y-108826784D01*
X88618024Y-108662812D01*
X88583400Y-108488741D01*
X88583400Y-108311259D01*
X88618024Y-108137188D01*
X88685944Y-107973216D01*
X88784547Y-107825646D01*
X88910046Y-107700147D01*
X89057616Y-107601544D01*
X89221588Y-107533624D01*
X89370888Y-107503927D01*
X89395658Y-107499000D01*
X89573142Y-107499000D01*
X89597912Y-107503927D01*
G37*
G36*
X120865400Y-109301000D02*
G01*
X119063400Y-109301000D01*
X119063400Y-107499000D01*
X120865400Y-107499000D01*
X120865400Y-109301000D01*
G37*
G36*
X114997912Y-107503927D02*
G01*
X115147212Y-107533624D01*
X115311184Y-107601544D01*
X115458754Y-107700147D01*
X115584253Y-107825646D01*
X115682856Y-107973216D01*
X115750776Y-108137188D01*
X115785400Y-108311259D01*
X115785400Y-108488741D01*
X115750776Y-108662812D01*
X115682856Y-108826784D01*
X115584253Y-108974354D01*
X115458754Y-109099853D01*
X115311184Y-109198456D01*
X115147212Y-109266376D01*
X114997912Y-109296073D01*
X114973142Y-109301000D01*
X114795658Y-109301000D01*
X114770888Y-109296073D01*
X114621588Y-109266376D01*
X114457616Y-109198456D01*
X114310046Y-109099853D01*
X114184547Y-108974354D01*
X114085944Y-108826784D01*
X114018024Y-108662812D01*
X113983400Y-108488741D01*
X113983400Y-108311259D01*
X114018024Y-108137188D01*
X114085944Y-107973216D01*
X114184547Y-107825646D01*
X114310046Y-107700147D01*
X114457616Y-107601544D01*
X114621588Y-107533624D01*
X114770888Y-107503927D01*
X114795658Y-107499000D01*
X114973142Y-107499000D01*
X114997912Y-107503927D01*
G37*
G36*
X112457912Y-107503927D02*
G01*
X112607212Y-107533624D01*
X112771184Y-107601544D01*
X112918754Y-107700147D01*
X113044253Y-107825646D01*
X113142856Y-107973216D01*
X113210776Y-108137188D01*
X113245400Y-108311259D01*
X113245400Y-108488741D01*
X113210776Y-108662812D01*
X113142856Y-108826784D01*
X113044253Y-108974354D01*
X112918754Y-109099853D01*
X112771184Y-109198456D01*
X112607212Y-109266376D01*
X112457912Y-109296073D01*
X112433142Y-109301000D01*
X112255658Y-109301000D01*
X112230888Y-109296073D01*
X112081588Y-109266376D01*
X111917616Y-109198456D01*
X111770046Y-109099853D01*
X111644547Y-108974354D01*
X111545944Y-108826784D01*
X111478024Y-108662812D01*
X111443400Y-108488741D01*
X111443400Y-108311259D01*
X111478024Y-108137188D01*
X111545944Y-107973216D01*
X111644547Y-107825646D01*
X111770046Y-107700147D01*
X111917616Y-107601544D01*
X112081588Y-107533624D01*
X112230888Y-107503927D01*
X112255658Y-107499000D01*
X112433142Y-107499000D01*
X112457912Y-107503927D01*
G37*
G36*
X109917912Y-107503927D02*
G01*
X110067212Y-107533624D01*
X110231184Y-107601544D01*
X110378754Y-107700147D01*
X110504253Y-107825646D01*
X110602856Y-107973216D01*
X110670776Y-108137188D01*
X110705400Y-108311259D01*
X110705400Y-108488741D01*
X110670776Y-108662812D01*
X110602856Y-108826784D01*
X110504253Y-108974354D01*
X110378754Y-109099853D01*
X110231184Y-109198456D01*
X110067212Y-109266376D01*
X109917912Y-109296073D01*
X109893142Y-109301000D01*
X109715658Y-109301000D01*
X109690888Y-109296073D01*
X109541588Y-109266376D01*
X109377616Y-109198456D01*
X109230046Y-109099853D01*
X109104547Y-108974354D01*
X109005944Y-108826784D01*
X108938024Y-108662812D01*
X108903400Y-108488741D01*
X108903400Y-108311259D01*
X108938024Y-108137188D01*
X109005944Y-107973216D01*
X109104547Y-107825646D01*
X109230046Y-107700147D01*
X109377616Y-107601544D01*
X109541588Y-107533624D01*
X109690888Y-107503927D01*
X109715658Y-107499000D01*
X109893142Y-107499000D01*
X109917912Y-107503927D01*
G37*
G36*
X107377912Y-107503927D02*
G01*
X107527212Y-107533624D01*
X107691184Y-107601544D01*
X107838754Y-107700147D01*
X107964253Y-107825646D01*
X108062856Y-107973216D01*
X108130776Y-108137188D01*
X108165400Y-108311259D01*
X108165400Y-108488741D01*
X108130776Y-108662812D01*
X108062856Y-108826784D01*
X107964253Y-108974354D01*
X107838754Y-109099853D01*
X107691184Y-109198456D01*
X107527212Y-109266376D01*
X107377912Y-109296073D01*
X107353142Y-109301000D01*
X107175658Y-109301000D01*
X107150888Y-109296073D01*
X107001588Y-109266376D01*
X106837616Y-109198456D01*
X106690046Y-109099853D01*
X106564547Y-108974354D01*
X106465944Y-108826784D01*
X106398024Y-108662812D01*
X106363400Y-108488741D01*
X106363400Y-108311259D01*
X106398024Y-108137188D01*
X106465944Y-107973216D01*
X106564547Y-107825646D01*
X106690046Y-107700147D01*
X106837616Y-107601544D01*
X107001588Y-107533624D01*
X107150888Y-107503927D01*
X107175658Y-107499000D01*
X107353142Y-107499000D01*
X107377912Y-107503927D01*
G37*
G36*
X104837912Y-107503927D02*
G01*
X104987212Y-107533624D01*
X105151184Y-107601544D01*
X105298754Y-107700147D01*
X105424253Y-107825646D01*
X105522856Y-107973216D01*
X105590776Y-108137188D01*
X105625400Y-108311259D01*
X105625400Y-108488741D01*
X105590776Y-108662812D01*
X105522856Y-108826784D01*
X105424253Y-108974354D01*
X105298754Y-109099853D01*
X105151184Y-109198456D01*
X104987212Y-109266376D01*
X104837912Y-109296073D01*
X104813142Y-109301000D01*
X104635658Y-109301000D01*
X104610888Y-109296073D01*
X104461588Y-109266376D01*
X104297616Y-109198456D01*
X104150046Y-109099853D01*
X104024547Y-108974354D01*
X103925944Y-108826784D01*
X103858024Y-108662812D01*
X103823400Y-108488741D01*
X103823400Y-108311259D01*
X103858024Y-108137188D01*
X103925944Y-107973216D01*
X104024547Y-107825646D01*
X104150046Y-107700147D01*
X104297616Y-107601544D01*
X104461588Y-107533624D01*
X104610888Y-107503927D01*
X104635658Y-107499000D01*
X104813142Y-107499000D01*
X104837912Y-107503927D01*
G37*
G36*
X102297912Y-107503927D02*
G01*
X102447212Y-107533624D01*
X102611184Y-107601544D01*
X102758754Y-107700147D01*
X102884253Y-107825646D01*
X102982856Y-107973216D01*
X103050776Y-108137188D01*
X103085400Y-108311259D01*
X103085400Y-108488741D01*
X103050776Y-108662812D01*
X102982856Y-108826784D01*
X102884253Y-108974354D01*
X102758754Y-109099853D01*
X102611184Y-109198456D01*
X102447212Y-109266376D01*
X102297912Y-109296073D01*
X102273142Y-109301000D01*
X102095658Y-109301000D01*
X102070888Y-109296073D01*
X101921588Y-109266376D01*
X101757616Y-109198456D01*
X101610046Y-109099853D01*
X101484547Y-108974354D01*
X101385944Y-108826784D01*
X101318024Y-108662812D01*
X101283400Y-108488741D01*
X101283400Y-108311259D01*
X101318024Y-108137188D01*
X101385944Y-107973216D01*
X101484547Y-107825646D01*
X101610046Y-107700147D01*
X101757616Y-107601544D01*
X101921588Y-107533624D01*
X102070888Y-107503927D01*
X102095658Y-107499000D01*
X102273142Y-107499000D01*
X102297912Y-107503927D01*
G37*
G36*
X99757912Y-107503927D02*
G01*
X99907212Y-107533624D01*
X100071184Y-107601544D01*
X100218754Y-107700147D01*
X100344253Y-107825646D01*
X100442856Y-107973216D01*
X100510776Y-108137188D01*
X100545400Y-108311259D01*
X100545400Y-108488741D01*
X100510776Y-108662812D01*
X100442856Y-108826784D01*
X100344253Y-108974354D01*
X100218754Y-109099853D01*
X100071184Y-109198456D01*
X99907212Y-109266376D01*
X99757912Y-109296073D01*
X99733142Y-109301000D01*
X99555658Y-109301000D01*
X99530888Y-109296073D01*
X99381588Y-109266376D01*
X99217616Y-109198456D01*
X99070046Y-109099853D01*
X98944547Y-108974354D01*
X98845944Y-108826784D01*
X98778024Y-108662812D01*
X98743400Y-108488741D01*
X98743400Y-108311259D01*
X98778024Y-108137188D01*
X98845944Y-107973216D01*
X98944547Y-107825646D01*
X99070046Y-107700147D01*
X99217616Y-107601544D01*
X99381588Y-107533624D01*
X99530888Y-107503927D01*
X99555658Y-107499000D01*
X99733142Y-107499000D01*
X99757912Y-107503927D01*
G37*
G36*
X97217912Y-107503927D02*
G01*
X97367212Y-107533624D01*
X97531184Y-107601544D01*
X97678754Y-107700147D01*
X97804253Y-107825646D01*
X97902856Y-107973216D01*
X97970776Y-108137188D01*
X98005400Y-108311259D01*
X98005400Y-108488741D01*
X97970776Y-108662812D01*
X97902856Y-108826784D01*
X97804253Y-108974354D01*
X97678754Y-109099853D01*
X97531184Y-109198456D01*
X97367212Y-109266376D01*
X97217912Y-109296073D01*
X97193142Y-109301000D01*
X97015658Y-109301000D01*
X96990888Y-109296073D01*
X96841588Y-109266376D01*
X96677616Y-109198456D01*
X96530046Y-109099853D01*
X96404547Y-108974354D01*
X96305944Y-108826784D01*
X96238024Y-108662812D01*
X96203400Y-108488741D01*
X96203400Y-108311259D01*
X96238024Y-108137188D01*
X96305944Y-107973216D01*
X96404547Y-107825646D01*
X96530046Y-107700147D01*
X96677616Y-107601544D01*
X96841588Y-107533624D01*
X96990888Y-107503927D01*
X97015658Y-107499000D01*
X97193142Y-107499000D01*
X97217912Y-107503927D01*
G37*
G36*
X94677912Y-107503927D02*
G01*
X94827212Y-107533624D01*
X94991184Y-107601544D01*
X95138754Y-107700147D01*
X95264253Y-107825646D01*
X95362856Y-107973216D01*
X95430776Y-108137188D01*
X95465400Y-108311259D01*
X95465400Y-108488741D01*
X95430776Y-108662812D01*
X95362856Y-108826784D01*
X95264253Y-108974354D01*
X95138754Y-109099853D01*
X94991184Y-109198456D01*
X94827212Y-109266376D01*
X94677912Y-109296073D01*
X94653142Y-109301000D01*
X94475658Y-109301000D01*
X94450888Y-109296073D01*
X94301588Y-109266376D01*
X94137616Y-109198456D01*
X93990046Y-109099853D01*
X93864547Y-108974354D01*
X93765944Y-108826784D01*
X93698024Y-108662812D01*
X93663400Y-108488741D01*
X93663400Y-108311259D01*
X93698024Y-108137188D01*
X93765944Y-107973216D01*
X93864547Y-107825646D01*
X93990046Y-107700147D01*
X94137616Y-107601544D01*
X94301588Y-107533624D01*
X94450888Y-107503927D01*
X94475658Y-107499000D01*
X94653142Y-107499000D01*
X94677912Y-107503927D01*
G37*
G36*
X92137912Y-107503927D02*
G01*
X92287212Y-107533624D01*
X92451184Y-107601544D01*
X92598754Y-107700147D01*
X92724253Y-107825646D01*
X92822856Y-107973216D01*
X92890776Y-108137188D01*
X92925400Y-108311259D01*
X92925400Y-108488741D01*
X92890776Y-108662812D01*
X92822856Y-108826784D01*
X92724253Y-108974354D01*
X92598754Y-109099853D01*
X92451184Y-109198456D01*
X92287212Y-109266376D01*
X92137912Y-109296073D01*
X92113142Y-109301000D01*
X91935658Y-109301000D01*
X91910888Y-109296073D01*
X91761588Y-109266376D01*
X91597616Y-109198456D01*
X91450046Y-109099853D01*
X91324547Y-108974354D01*
X91225944Y-108826784D01*
X91158024Y-108662812D01*
X91123400Y-108488741D01*
X91123400Y-108311259D01*
X91158024Y-108137188D01*
X91225944Y-107973216D01*
X91324547Y-107825646D01*
X91450046Y-107700147D01*
X91597616Y-107601544D01*
X91761588Y-107533624D01*
X91910888Y-107503927D01*
X91935658Y-107499000D01*
X92113142Y-107499000D01*
X92137912Y-107503927D01*
G37*
G36*
X87057912Y-107503927D02*
G01*
X87207212Y-107533624D01*
X87371184Y-107601544D01*
X87518754Y-107700147D01*
X87644253Y-107825646D01*
X87742856Y-107973216D01*
X87810776Y-108137188D01*
X87845400Y-108311259D01*
X87845400Y-108488741D01*
X87810776Y-108662812D01*
X87742856Y-108826784D01*
X87644253Y-108974354D01*
X87518754Y-109099853D01*
X87371184Y-109198456D01*
X87207212Y-109266376D01*
X87057912Y-109296073D01*
X87033142Y-109301000D01*
X86855658Y-109301000D01*
X86830888Y-109296073D01*
X86681588Y-109266376D01*
X86517616Y-109198456D01*
X86370046Y-109099853D01*
X86244547Y-108974354D01*
X86145944Y-108826784D01*
X86078024Y-108662812D01*
X86043400Y-108488741D01*
X86043400Y-108311259D01*
X86078024Y-108137188D01*
X86145944Y-107973216D01*
X86244547Y-107825646D01*
X86370046Y-107700147D01*
X86517616Y-107601544D01*
X86681588Y-107533624D01*
X86830888Y-107503927D01*
X86855658Y-107499000D01*
X87033142Y-107499000D01*
X87057912Y-107503927D01*
G37*
G36*
X84517912Y-107503927D02*
G01*
X84667212Y-107533624D01*
X84831184Y-107601544D01*
X84978754Y-107700147D01*
X85104253Y-107825646D01*
X85202856Y-107973216D01*
X85270776Y-108137188D01*
X85305400Y-108311259D01*
X85305400Y-108488741D01*
X85270776Y-108662812D01*
X85202856Y-108826784D01*
X85104253Y-108974354D01*
X84978754Y-109099853D01*
X84831184Y-109198456D01*
X84667212Y-109266376D01*
X84517912Y-109296073D01*
X84493142Y-109301000D01*
X84315658Y-109301000D01*
X84290888Y-109296073D01*
X84141588Y-109266376D01*
X83977616Y-109198456D01*
X83830046Y-109099853D01*
X83704547Y-108974354D01*
X83605944Y-108826784D01*
X83538024Y-108662812D01*
X83503400Y-108488741D01*
X83503400Y-108311259D01*
X83538024Y-108137188D01*
X83605944Y-107973216D01*
X83704547Y-107825646D01*
X83830046Y-107700147D01*
X83977616Y-107601544D01*
X84141588Y-107533624D01*
X84290888Y-107503927D01*
X84315658Y-107499000D01*
X84493142Y-107499000D01*
X84517912Y-107503927D01*
G37*
G36*
X79561000Y-108449400D02*
G01*
X77959000Y-108449400D01*
X77959000Y-106847400D01*
X79561000Y-106847400D01*
X79561000Y-108449400D01*
G37*
G36*
X71373642Y-106878181D02*
G01*
X71519414Y-106938562D01*
X71519416Y-106938563D01*
X71650608Y-107026222D01*
X71762178Y-107137792D01*
X71849837Y-107268984D01*
X71849838Y-107268986D01*
X71910219Y-107414758D01*
X71941000Y-107569507D01*
X71941000Y-107727293D01*
X71910219Y-107882042D01*
X71849838Y-108027814D01*
X71849837Y-108027816D01*
X71762178Y-108159008D01*
X71650608Y-108270578D01*
X71519416Y-108358237D01*
X71519415Y-108358238D01*
X71519414Y-108358238D01*
X71373642Y-108418619D01*
X71218893Y-108449400D01*
X71061107Y-108449400D01*
X70906358Y-108418619D01*
X70760586Y-108358238D01*
X70760585Y-108358238D01*
X70760584Y-108358237D01*
X70629392Y-108270578D01*
X70517822Y-108159008D01*
X70430163Y-108027816D01*
X70430162Y-108027814D01*
X70369781Y-107882042D01*
X70339000Y-107727293D01*
X70339000Y-107569507D01*
X70369781Y-107414758D01*
X70430162Y-107268986D01*
X70430163Y-107268984D01*
X70517822Y-107137792D01*
X70629392Y-107026222D01*
X70760584Y-106938563D01*
X70760586Y-106938562D01*
X70906358Y-106878181D01*
X71061107Y-106847400D01*
X71218893Y-106847400D01*
X71373642Y-106878181D01*
G37*
G36*
X124352628Y-105179703D02*
G01*
X124507500Y-105243853D01*
X124646881Y-105336985D01*
X124765415Y-105455519D01*
X124858547Y-105594900D01*
X124922697Y-105749772D01*
X124955400Y-105914184D01*
X124955400Y-106081816D01*
X124922697Y-106246228D01*
X124858547Y-106401100D01*
X124765415Y-106540481D01*
X124646881Y-106659015D01*
X124507500Y-106752147D01*
X124352628Y-106816297D01*
X124188216Y-106849000D01*
X124020584Y-106849000D01*
X123856172Y-106816297D01*
X123701300Y-106752147D01*
X123561919Y-106659015D01*
X123443385Y-106540481D01*
X123350253Y-106401100D01*
X123286103Y-106246228D01*
X123253400Y-106081816D01*
X123253400Y-105914184D01*
X123286103Y-105749772D01*
X123350253Y-105594900D01*
X123443385Y-105455519D01*
X123561919Y-105336985D01*
X123701300Y-105243853D01*
X123856172Y-105179703D01*
X124020584Y-105147000D01*
X124188216Y-105147000D01*
X124352628Y-105179703D01*
G37*
G36*
X127908628Y-105179703D02*
G01*
X128063500Y-105243853D01*
X128202881Y-105336985D01*
X128321415Y-105455519D01*
X128414547Y-105594900D01*
X128478697Y-105749772D01*
X128511400Y-105914184D01*
X128511400Y-106081816D01*
X128478697Y-106246228D01*
X128414547Y-106401100D01*
X128321415Y-106540481D01*
X128202881Y-106659015D01*
X128063500Y-106752147D01*
X127908628Y-106816297D01*
X127744216Y-106849000D01*
X127576584Y-106849000D01*
X127412172Y-106816297D01*
X127257300Y-106752147D01*
X127117919Y-106659015D01*
X126999385Y-106540481D01*
X126906253Y-106401100D01*
X126842103Y-106246228D01*
X126809400Y-106081816D01*
X126809400Y-105914184D01*
X126842103Y-105749772D01*
X126906253Y-105594900D01*
X126999385Y-105455519D01*
X127117919Y-105336985D01*
X127257300Y-105243853D01*
X127412172Y-105179703D01*
X127576584Y-105147000D01*
X127744216Y-105147000D01*
X127908628Y-105179703D01*
G37*
G36*
X131439228Y-105099703D02*
G01*
X131594100Y-105163853D01*
X131733481Y-105256985D01*
X131852015Y-105375519D01*
X131945147Y-105514900D01*
X132009297Y-105669772D01*
X132042000Y-105834184D01*
X132042000Y-106001816D01*
X132009297Y-106166228D01*
X131945147Y-106321100D01*
X131852015Y-106460481D01*
X131733481Y-106579015D01*
X131594100Y-106672147D01*
X131439228Y-106736297D01*
X131274816Y-106769000D01*
X131107184Y-106769000D01*
X130942772Y-106736297D01*
X130787900Y-106672147D01*
X130648519Y-106579015D01*
X130529985Y-106460481D01*
X130436853Y-106321100D01*
X130372703Y-106166228D01*
X130340000Y-106001816D01*
X130340000Y-105834184D01*
X130372703Y-105669772D01*
X130436853Y-105514900D01*
X130529985Y-105375519D01*
X130648519Y-105256985D01*
X130787900Y-105163853D01*
X130942772Y-105099703D01*
X131107184Y-105067000D01*
X131274816Y-105067000D01*
X131439228Y-105099703D01*
G37*
G36*
X109917912Y-104963927D02*
G01*
X110067212Y-104993624D01*
X110231184Y-105061544D01*
X110378754Y-105160147D01*
X110504253Y-105285646D01*
X110602856Y-105433216D01*
X110670776Y-105597188D01*
X110705400Y-105771259D01*
X110705400Y-105948741D01*
X110670776Y-106122812D01*
X110602856Y-106286784D01*
X110504253Y-106434354D01*
X110378754Y-106559853D01*
X110231184Y-106658456D01*
X110067212Y-106726376D01*
X109917912Y-106756073D01*
X109893142Y-106761000D01*
X109715658Y-106761000D01*
X109690888Y-106756073D01*
X109541588Y-106726376D01*
X109377616Y-106658456D01*
X109230046Y-106559853D01*
X109104547Y-106434354D01*
X109005944Y-106286784D01*
X108938024Y-106122812D01*
X108903400Y-105948741D01*
X108903400Y-105771259D01*
X108938024Y-105597188D01*
X109005944Y-105433216D01*
X109104547Y-105285646D01*
X109230046Y-105160147D01*
X109377616Y-105061544D01*
X109541588Y-104993624D01*
X109690888Y-104963927D01*
X109715658Y-104959000D01*
X109893142Y-104959000D01*
X109917912Y-104963927D01*
G37*
G36*
X120077912Y-104963927D02*
G01*
X120227212Y-104993624D01*
X120391184Y-105061544D01*
X120538754Y-105160147D01*
X120664253Y-105285646D01*
X120762856Y-105433216D01*
X120830776Y-105597188D01*
X120865400Y-105771259D01*
X120865400Y-105948741D01*
X120830776Y-106122812D01*
X120762856Y-106286784D01*
X120664253Y-106434354D01*
X120538754Y-106559853D01*
X120391184Y-106658456D01*
X120227212Y-106726376D01*
X120077912Y-106756073D01*
X120053142Y-106761000D01*
X119875658Y-106761000D01*
X119850888Y-106756073D01*
X119701588Y-106726376D01*
X119537616Y-106658456D01*
X119390046Y-106559853D01*
X119264547Y-106434354D01*
X119165944Y-106286784D01*
X119098024Y-106122812D01*
X119063400Y-105948741D01*
X119063400Y-105771259D01*
X119098024Y-105597188D01*
X119165944Y-105433216D01*
X119264547Y-105285646D01*
X119390046Y-105160147D01*
X119537616Y-105061544D01*
X119701588Y-104993624D01*
X119850888Y-104963927D01*
X119875658Y-104959000D01*
X120053142Y-104959000D01*
X120077912Y-104963927D01*
G37*
G36*
X107377912Y-104963927D02*
G01*
X107527212Y-104993624D01*
X107691184Y-105061544D01*
X107838754Y-105160147D01*
X107964253Y-105285646D01*
X108062856Y-105433216D01*
X108130776Y-105597188D01*
X108165400Y-105771259D01*
X108165400Y-105948741D01*
X108130776Y-106122812D01*
X108062856Y-106286784D01*
X107964253Y-106434354D01*
X107838754Y-106559853D01*
X107691184Y-106658456D01*
X107527212Y-106726376D01*
X107377912Y-106756073D01*
X107353142Y-106761000D01*
X107175658Y-106761000D01*
X107150888Y-106756073D01*
X107001588Y-106726376D01*
X106837616Y-106658456D01*
X106690046Y-106559853D01*
X106564547Y-106434354D01*
X106465944Y-106286784D01*
X106398024Y-106122812D01*
X106363400Y-105948741D01*
X106363400Y-105771259D01*
X106398024Y-105597188D01*
X106465944Y-105433216D01*
X106564547Y-105285646D01*
X106690046Y-105160147D01*
X106837616Y-105061544D01*
X107001588Y-104993624D01*
X107150888Y-104963927D01*
X107175658Y-104959000D01*
X107353142Y-104959000D01*
X107377912Y-104963927D01*
G37*
G36*
X104837912Y-104963927D02*
G01*
X104987212Y-104993624D01*
X105151184Y-105061544D01*
X105298754Y-105160147D01*
X105424253Y-105285646D01*
X105522856Y-105433216D01*
X105590776Y-105597188D01*
X105625400Y-105771259D01*
X105625400Y-105948741D01*
X105590776Y-106122812D01*
X105522856Y-106286784D01*
X105424253Y-106434354D01*
X105298754Y-106559853D01*
X105151184Y-106658456D01*
X104987212Y-106726376D01*
X104837912Y-106756073D01*
X104813142Y-106761000D01*
X104635658Y-106761000D01*
X104610888Y-106756073D01*
X104461588Y-106726376D01*
X104297616Y-106658456D01*
X104150046Y-106559853D01*
X104024547Y-106434354D01*
X103925944Y-106286784D01*
X103858024Y-106122812D01*
X103823400Y-105948741D01*
X103823400Y-105771259D01*
X103858024Y-105597188D01*
X103925944Y-105433216D01*
X104024547Y-105285646D01*
X104150046Y-105160147D01*
X104297616Y-105061544D01*
X104461588Y-104993624D01*
X104610888Y-104963927D01*
X104635658Y-104959000D01*
X104813142Y-104959000D01*
X104837912Y-104963927D01*
G37*
G36*
X102297912Y-104963927D02*
G01*
X102447212Y-104993624D01*
X102611184Y-105061544D01*
X102758754Y-105160147D01*
X102884253Y-105285646D01*
X102982856Y-105433216D01*
X103050776Y-105597188D01*
X103085400Y-105771259D01*
X103085400Y-105948741D01*
X103050776Y-106122812D01*
X102982856Y-106286784D01*
X102884253Y-106434354D01*
X102758754Y-106559853D01*
X102611184Y-106658456D01*
X102447212Y-106726376D01*
X102297912Y-106756073D01*
X102273142Y-106761000D01*
X102095658Y-106761000D01*
X102070888Y-106756073D01*
X101921588Y-106726376D01*
X101757616Y-106658456D01*
X101610046Y-106559853D01*
X101484547Y-106434354D01*
X101385944Y-106286784D01*
X101318024Y-106122812D01*
X101283400Y-105948741D01*
X101283400Y-105771259D01*
X101318024Y-105597188D01*
X101385944Y-105433216D01*
X101484547Y-105285646D01*
X101610046Y-105160147D01*
X101757616Y-105061544D01*
X101921588Y-104993624D01*
X102070888Y-104963927D01*
X102095658Y-104959000D01*
X102273142Y-104959000D01*
X102297912Y-104963927D01*
G37*
G36*
X99757912Y-104963927D02*
G01*
X99907212Y-104993624D01*
X100071184Y-105061544D01*
X100218754Y-105160147D01*
X100344253Y-105285646D01*
X100442856Y-105433216D01*
X100510776Y-105597188D01*
X100545400Y-105771259D01*
X100545400Y-105948741D01*
X100510776Y-106122812D01*
X100442856Y-106286784D01*
X100344253Y-106434354D01*
X100218754Y-106559853D01*
X100071184Y-106658456D01*
X99907212Y-106726376D01*
X99757912Y-106756073D01*
X99733142Y-106761000D01*
X99555658Y-106761000D01*
X99530888Y-106756073D01*
X99381588Y-106726376D01*
X99217616Y-106658456D01*
X99070046Y-106559853D01*
X98944547Y-106434354D01*
X98845944Y-106286784D01*
X98778024Y-106122812D01*
X98743400Y-105948741D01*
X98743400Y-105771259D01*
X98778024Y-105597188D01*
X98845944Y-105433216D01*
X98944547Y-105285646D01*
X99070046Y-105160147D01*
X99217616Y-105061544D01*
X99381588Y-104993624D01*
X99530888Y-104963927D01*
X99555658Y-104959000D01*
X99733142Y-104959000D01*
X99757912Y-104963927D01*
G37*
G36*
X97217912Y-104963927D02*
G01*
X97367212Y-104993624D01*
X97531184Y-105061544D01*
X97678754Y-105160147D01*
X97804253Y-105285646D01*
X97902856Y-105433216D01*
X97970776Y-105597188D01*
X98005400Y-105771259D01*
X98005400Y-105948741D01*
X97970776Y-106122812D01*
X97902856Y-106286784D01*
X97804253Y-106434354D01*
X97678754Y-106559853D01*
X97531184Y-106658456D01*
X97367212Y-106726376D01*
X97217912Y-106756073D01*
X97193142Y-106761000D01*
X97015658Y-106761000D01*
X96990888Y-106756073D01*
X96841588Y-106726376D01*
X96677616Y-106658456D01*
X96530046Y-106559853D01*
X96404547Y-106434354D01*
X96305944Y-106286784D01*
X96238024Y-106122812D01*
X96203400Y-105948741D01*
X96203400Y-105771259D01*
X96238024Y-105597188D01*
X96305944Y-105433216D01*
X96404547Y-105285646D01*
X96530046Y-105160147D01*
X96677616Y-105061544D01*
X96841588Y-104993624D01*
X96990888Y-104963927D01*
X97015658Y-104959000D01*
X97193142Y-104959000D01*
X97217912Y-104963927D01*
G37*
G36*
X94677912Y-104963927D02*
G01*
X94827212Y-104993624D01*
X94991184Y-105061544D01*
X95138754Y-105160147D01*
X95264253Y-105285646D01*
X95362856Y-105433216D01*
X95430776Y-105597188D01*
X95465400Y-105771259D01*
X95465400Y-105948741D01*
X95430776Y-106122812D01*
X95362856Y-106286784D01*
X95264253Y-106434354D01*
X95138754Y-106559853D01*
X94991184Y-106658456D01*
X94827212Y-106726376D01*
X94677912Y-106756073D01*
X94653142Y-106761000D01*
X94475658Y-106761000D01*
X94450888Y-106756073D01*
X94301588Y-106726376D01*
X94137616Y-106658456D01*
X93990046Y-106559853D01*
X93864547Y-106434354D01*
X93765944Y-106286784D01*
X93698024Y-106122812D01*
X93663400Y-105948741D01*
X93663400Y-105771259D01*
X93698024Y-105597188D01*
X93765944Y-105433216D01*
X93864547Y-105285646D01*
X93990046Y-105160147D01*
X94137616Y-105061544D01*
X94301588Y-104993624D01*
X94450888Y-104963927D01*
X94475658Y-104959000D01*
X94653142Y-104959000D01*
X94677912Y-104963927D01*
G37*
G36*
X92137912Y-104963927D02*
G01*
X92287212Y-104993624D01*
X92451184Y-105061544D01*
X92598754Y-105160147D01*
X92724253Y-105285646D01*
X92822856Y-105433216D01*
X92890776Y-105597188D01*
X92925400Y-105771259D01*
X92925400Y-105948741D01*
X92890776Y-106122812D01*
X92822856Y-106286784D01*
X92724253Y-106434354D01*
X92598754Y-106559853D01*
X92451184Y-106658456D01*
X92287212Y-106726376D01*
X92137912Y-106756073D01*
X92113142Y-106761000D01*
X91935658Y-106761000D01*
X91910888Y-106756073D01*
X91761588Y-106726376D01*
X91597616Y-106658456D01*
X91450046Y-106559853D01*
X91324547Y-106434354D01*
X91225944Y-106286784D01*
X91158024Y-106122812D01*
X91123400Y-105948741D01*
X91123400Y-105771259D01*
X91158024Y-105597188D01*
X91225944Y-105433216D01*
X91324547Y-105285646D01*
X91450046Y-105160147D01*
X91597616Y-105061544D01*
X91761588Y-104993624D01*
X91910888Y-104963927D01*
X91935658Y-104959000D01*
X92113142Y-104959000D01*
X92137912Y-104963927D01*
G37*
G36*
X89597912Y-104963927D02*
G01*
X89747212Y-104993624D01*
X89911184Y-105061544D01*
X90058754Y-105160147D01*
X90184253Y-105285646D01*
X90282856Y-105433216D01*
X90350776Y-105597188D01*
X90385400Y-105771259D01*
X90385400Y-105948741D01*
X90350776Y-106122812D01*
X90282856Y-106286784D01*
X90184253Y-106434354D01*
X90058754Y-106559853D01*
X89911184Y-106658456D01*
X89747212Y-106726376D01*
X89597912Y-106756073D01*
X89573142Y-106761000D01*
X89395658Y-106761000D01*
X89370888Y-106756073D01*
X89221588Y-106726376D01*
X89057616Y-106658456D01*
X88910046Y-106559853D01*
X88784547Y-106434354D01*
X88685944Y-106286784D01*
X88618024Y-106122812D01*
X88583400Y-105948741D01*
X88583400Y-105771259D01*
X88618024Y-105597188D01*
X88685944Y-105433216D01*
X88784547Y-105285646D01*
X88910046Y-105160147D01*
X89057616Y-105061544D01*
X89221588Y-104993624D01*
X89370888Y-104963927D01*
X89395658Y-104959000D01*
X89573142Y-104959000D01*
X89597912Y-104963927D01*
G37*
G36*
X87057912Y-104963927D02*
G01*
X87207212Y-104993624D01*
X87371184Y-105061544D01*
X87518754Y-105160147D01*
X87644253Y-105285646D01*
X87742856Y-105433216D01*
X87810776Y-105597188D01*
X87845400Y-105771259D01*
X87845400Y-105948741D01*
X87810776Y-106122812D01*
X87742856Y-106286784D01*
X87644253Y-106434354D01*
X87518754Y-106559853D01*
X87371184Y-106658456D01*
X87207212Y-106726376D01*
X87057912Y-106756073D01*
X87033142Y-106761000D01*
X86855658Y-106761000D01*
X86830888Y-106756073D01*
X86681588Y-106726376D01*
X86517616Y-106658456D01*
X86370046Y-106559853D01*
X86244547Y-106434354D01*
X86145944Y-106286784D01*
X86078024Y-106122812D01*
X86043400Y-105948741D01*
X86043400Y-105771259D01*
X86078024Y-105597188D01*
X86145944Y-105433216D01*
X86244547Y-105285646D01*
X86370046Y-105160147D01*
X86517616Y-105061544D01*
X86681588Y-104993624D01*
X86830888Y-104963927D01*
X86855658Y-104959000D01*
X87033142Y-104959000D01*
X87057912Y-104963927D01*
G37*
G36*
X84517912Y-104963927D02*
G01*
X84667212Y-104993624D01*
X84831184Y-105061544D01*
X84978754Y-105160147D01*
X85104253Y-105285646D01*
X85202856Y-105433216D01*
X85270776Y-105597188D01*
X85305400Y-105771259D01*
X85305400Y-105948741D01*
X85270776Y-106122812D01*
X85202856Y-106286784D01*
X85104253Y-106434354D01*
X84978754Y-106559853D01*
X84831184Y-106658456D01*
X84667212Y-106726376D01*
X84517912Y-106756073D01*
X84493142Y-106761000D01*
X84315658Y-106761000D01*
X84290888Y-106756073D01*
X84141588Y-106726376D01*
X83977616Y-106658456D01*
X83830046Y-106559853D01*
X83704547Y-106434354D01*
X83605944Y-106286784D01*
X83538024Y-106122812D01*
X83503400Y-105948741D01*
X83503400Y-105771259D01*
X83538024Y-105597188D01*
X83605944Y-105433216D01*
X83704547Y-105285646D01*
X83830046Y-105160147D01*
X83977616Y-105061544D01*
X84141588Y-104993624D01*
X84290888Y-104963927D01*
X84315658Y-104959000D01*
X84493142Y-104959000D01*
X84517912Y-104963927D01*
G37*
G36*
X112457912Y-104963927D02*
G01*
X112607212Y-104993624D01*
X112771184Y-105061544D01*
X112918754Y-105160147D01*
X113044253Y-105285646D01*
X113142856Y-105433216D01*
X113210776Y-105597188D01*
X113245400Y-105771259D01*
X113245400Y-105948741D01*
X113210776Y-106122812D01*
X113142856Y-106286784D01*
X113044253Y-106434354D01*
X112918754Y-106559853D01*
X112771184Y-106658456D01*
X112607212Y-106726376D01*
X112457912Y-106756073D01*
X112433142Y-106761000D01*
X112255658Y-106761000D01*
X112230888Y-106756073D01*
X112081588Y-106726376D01*
X111917616Y-106658456D01*
X111770046Y-106559853D01*
X111644547Y-106434354D01*
X111545944Y-106286784D01*
X111478024Y-106122812D01*
X111443400Y-105948741D01*
X111443400Y-105771259D01*
X111478024Y-105597188D01*
X111545944Y-105433216D01*
X111644547Y-105285646D01*
X111770046Y-105160147D01*
X111917616Y-105061544D01*
X112081588Y-104993624D01*
X112230888Y-104963927D01*
X112255658Y-104959000D01*
X112433142Y-104959000D01*
X112457912Y-104963927D01*
G37*
G36*
X114997912Y-104963927D02*
G01*
X115147212Y-104993624D01*
X115311184Y-105061544D01*
X115458754Y-105160147D01*
X115584253Y-105285646D01*
X115682856Y-105433216D01*
X115750776Y-105597188D01*
X115785400Y-105771259D01*
X115785400Y-105948741D01*
X115750776Y-106122812D01*
X115682856Y-106286784D01*
X115584253Y-106434354D01*
X115458754Y-106559853D01*
X115311184Y-106658456D01*
X115147212Y-106726376D01*
X114997912Y-106756073D01*
X114973142Y-106761000D01*
X114795658Y-106761000D01*
X114770888Y-106756073D01*
X114621588Y-106726376D01*
X114457616Y-106658456D01*
X114310046Y-106559853D01*
X114184547Y-106434354D01*
X114085944Y-106286784D01*
X114018024Y-106122812D01*
X113983400Y-105948741D01*
X113983400Y-105771259D01*
X114018024Y-105597188D01*
X114085944Y-105433216D01*
X114184547Y-105285646D01*
X114310046Y-105160147D01*
X114457616Y-105061544D01*
X114621588Y-104993624D01*
X114770888Y-104963927D01*
X114795658Y-104959000D01*
X114973142Y-104959000D01*
X114997912Y-104963927D01*
G37*
G36*
X117537912Y-104963927D02*
G01*
X117687212Y-104993624D01*
X117851184Y-105061544D01*
X117998754Y-105160147D01*
X118124253Y-105285646D01*
X118222856Y-105433216D01*
X118290776Y-105597188D01*
X118325400Y-105771259D01*
X118325400Y-105948741D01*
X118290776Y-106122812D01*
X118222856Y-106286784D01*
X118124253Y-106434354D01*
X117998754Y-106559853D01*
X117851184Y-106658456D01*
X117687212Y-106726376D01*
X117537912Y-106756073D01*
X117513142Y-106761000D01*
X117335658Y-106761000D01*
X117310888Y-106756073D01*
X117161588Y-106726376D01*
X116997616Y-106658456D01*
X116850046Y-106559853D01*
X116724547Y-106434354D01*
X116625944Y-106286784D01*
X116558024Y-106122812D01*
X116523400Y-105948741D01*
X116523400Y-105771259D01*
X116558024Y-105597188D01*
X116625944Y-105433216D01*
X116724547Y-105285646D01*
X116850046Y-105160147D01*
X116997616Y-105061544D01*
X117161588Y-104993624D01*
X117310888Y-104963927D01*
X117335658Y-104959000D01*
X117513142Y-104959000D01*
X117537912Y-104963927D01*
G37*
G36*
X71379059Y-104726260D02*
G01*
X71515732Y-104782872D01*
X71638735Y-104865060D01*
X71743340Y-104969665D01*
X71808377Y-105067000D01*
X71825529Y-105092670D01*
X71882140Y-105229341D01*
X71911000Y-105374432D01*
X71911000Y-105522368D01*
X71882140Y-105667459D01*
X71839145Y-105771259D01*
X71825528Y-105804132D01*
X71743340Y-105927135D01*
X71638735Y-106031740D01*
X71515732Y-106113928D01*
X71515731Y-106113929D01*
X71515730Y-106113929D01*
X71379059Y-106170540D01*
X71233968Y-106199400D01*
X71086032Y-106199400D01*
X70940941Y-106170540D01*
X70804270Y-106113929D01*
X70804269Y-106113929D01*
X70804268Y-106113928D01*
X70681265Y-106031740D01*
X70576660Y-105927135D01*
X70494472Y-105804132D01*
X70480856Y-105771259D01*
X70437860Y-105667459D01*
X70409000Y-105522368D01*
X70409000Y-105374432D01*
X70437860Y-105229341D01*
X70494471Y-105092670D01*
X70511623Y-105067000D01*
X70576660Y-104969665D01*
X70681265Y-104865060D01*
X70804268Y-104782872D01*
X70940941Y-104726260D01*
X71086032Y-104697400D01*
X71233968Y-104697400D01*
X71379059Y-104726260D01*
G37*
G36*
X78999059Y-104726260D02*
G01*
X79135732Y-104782872D01*
X79258735Y-104865060D01*
X79363340Y-104969665D01*
X79428377Y-105067000D01*
X79445529Y-105092670D01*
X79502140Y-105229341D01*
X79531000Y-105374432D01*
X79531000Y-105522368D01*
X79502140Y-105667459D01*
X79459145Y-105771259D01*
X79445528Y-105804132D01*
X79363340Y-105927135D01*
X79258735Y-106031740D01*
X79135732Y-106113928D01*
X79135731Y-106113929D01*
X79135730Y-106113929D01*
X78999059Y-106170540D01*
X78853968Y-106199400D01*
X78706032Y-106199400D01*
X78560941Y-106170540D01*
X78424270Y-106113929D01*
X78424269Y-106113929D01*
X78424268Y-106113928D01*
X78301265Y-106031740D01*
X78196660Y-105927135D01*
X78114472Y-105804132D01*
X78100856Y-105771259D01*
X78057860Y-105667459D01*
X78029000Y-105522368D01*
X78029000Y-105374432D01*
X78057860Y-105229341D01*
X78114471Y-105092670D01*
X78131623Y-105067000D01*
X78196660Y-104969665D01*
X78301265Y-104865060D01*
X78424268Y-104782872D01*
X78560941Y-104726260D01*
X78706032Y-104697400D01*
X78853968Y-104697400D01*
X78999059Y-104726260D01*
G37*
G36*
X143340200Y-105976800D02*
G01*
X141038200Y-105976800D01*
X141038200Y-103674800D01*
X143340200Y-103674800D01*
X143340200Y-105976800D01*
G37*
G36*
X138349749Y-103544516D02*
G01*
X138460934Y-103566632D01*
X138670403Y-103653397D01*
X138858920Y-103779360D01*
X139019240Y-103939680D01*
X139145203Y-104128197D01*
X139231968Y-104337666D01*
X139249936Y-104427999D01*
X139257727Y-104467163D01*
X139276200Y-104560036D01*
X139276200Y-104786764D01*
X139231968Y-105009134D01*
X139145203Y-105218603D01*
X139019240Y-105407120D01*
X138858920Y-105567440D01*
X138670403Y-105693403D01*
X138460934Y-105780168D01*
X138349749Y-105802284D01*
X138238565Y-105824400D01*
X138011835Y-105824400D01*
X137900651Y-105802284D01*
X137789466Y-105780168D01*
X137579997Y-105693403D01*
X137391480Y-105567440D01*
X137231160Y-105407120D01*
X137105197Y-105218603D01*
X137018432Y-105009134D01*
X136974200Y-104786764D01*
X136974200Y-104560036D01*
X136992674Y-104467163D01*
X137000464Y-104427999D01*
X137018432Y-104337666D01*
X137105197Y-104128197D01*
X137231160Y-103939680D01*
X137391480Y-103779360D01*
X137579997Y-103653397D01*
X137789466Y-103566632D01*
X137900651Y-103544516D01*
X138011835Y-103522400D01*
X138238565Y-103522400D01*
X138349749Y-103544516D01*
G37*
G36*
X61075027Y-102441237D02*
G01*
X61244866Y-102492757D01*
X61401391Y-102576422D01*
X61437129Y-102605752D01*
X61538586Y-102689014D01*
X61621848Y-102790471D01*
X61651178Y-102826209D01*
X61734843Y-102982734D01*
X61786363Y-103152574D01*
X61786363Y-103152576D01*
X61799400Y-103284941D01*
X61799400Y-103623460D01*
X61796451Y-103653397D01*
X61786363Y-103755827D01*
X61734843Y-103925666D01*
X61651178Y-104082191D01*
X61621848Y-104117929D01*
X61538586Y-104219386D01*
X61401389Y-104331979D01*
X61244867Y-104415642D01*
X61244865Y-104415643D01*
X61075026Y-104467163D01*
X60898400Y-104484559D01*
X60721773Y-104467163D01*
X60551934Y-104415643D01*
X60395409Y-104331978D01*
X60353150Y-104297297D01*
X60258214Y-104219386D01*
X60145621Y-104082189D01*
X60061958Y-103925667D01*
X60045247Y-103870578D01*
X60010437Y-103755826D01*
X59997400Y-103623457D01*
X59997400Y-103284942D01*
X60010437Y-103152573D01*
X60061957Y-102982734D01*
X60145622Y-102826209D01*
X60258215Y-102689015D01*
X60395410Y-102576422D01*
X60551935Y-102492757D01*
X60721774Y-102441237D01*
X60898400Y-102423841D01*
X61075027Y-102441237D01*
G37*
G36*
X58575027Y-102441237D02*
G01*
X58744866Y-102492757D01*
X58901391Y-102576422D01*
X58937129Y-102605752D01*
X59038586Y-102689014D01*
X59121848Y-102790471D01*
X59151178Y-102826209D01*
X59234843Y-102982734D01*
X59286363Y-103152574D01*
X59286363Y-103152576D01*
X59299400Y-103284941D01*
X59299400Y-103623460D01*
X59296451Y-103653397D01*
X59286363Y-103755827D01*
X59234843Y-103925666D01*
X59151178Y-104082191D01*
X59121848Y-104117929D01*
X59038586Y-104219386D01*
X58901389Y-104331979D01*
X58744867Y-104415642D01*
X58744865Y-104415643D01*
X58575026Y-104467163D01*
X58398400Y-104484559D01*
X58221773Y-104467163D01*
X58051934Y-104415643D01*
X57895409Y-104331978D01*
X57853150Y-104297297D01*
X57758214Y-104219386D01*
X57645621Y-104082189D01*
X57561958Y-103925667D01*
X57545247Y-103870578D01*
X57510437Y-103755826D01*
X57497400Y-103623457D01*
X57497400Y-103284942D01*
X57510437Y-103152573D01*
X57561957Y-102982734D01*
X57645622Y-102826209D01*
X57758215Y-102689015D01*
X57895410Y-102576422D01*
X58051935Y-102492757D01*
X58221774Y-102441237D01*
X58398400Y-102423841D01*
X58575027Y-102441237D01*
G37*
G36*
X64157000Y-102432189D02*
G01*
X64190052Y-102442215D01*
X64220503Y-102458492D01*
X64247199Y-102480401D01*
X64269108Y-102507097D01*
X64285385Y-102537548D01*
X64295411Y-102570600D01*
X64299400Y-102611103D01*
X64299400Y-104297297D01*
X64295411Y-104337800D01*
X64285385Y-104370852D01*
X64269108Y-104401303D01*
X64247199Y-104427999D01*
X64220503Y-104449908D01*
X64190052Y-104466185D01*
X64157000Y-104476211D01*
X64116497Y-104480200D01*
X62680303Y-104480200D01*
X62639800Y-104476211D01*
X62606748Y-104466185D01*
X62576297Y-104449908D01*
X62549601Y-104427999D01*
X62527692Y-104401303D01*
X62511415Y-104370852D01*
X62501389Y-104337800D01*
X62497400Y-104297297D01*
X62497400Y-102611103D01*
X62501389Y-102570600D01*
X62511415Y-102537548D01*
X62527692Y-102507097D01*
X62549601Y-102480401D01*
X62576297Y-102458492D01*
X62606748Y-102442215D01*
X62639800Y-102432189D01*
X62680303Y-102428200D01*
X64116497Y-102428200D01*
X64157000Y-102432189D01*
G37*
G36*
X71373642Y-102478181D02*
G01*
X71516966Y-102537548D01*
X71519416Y-102538563D01*
X71650608Y-102626222D01*
X71762178Y-102737792D01*
X71821257Y-102826211D01*
X71849838Y-102868986D01*
X71910219Y-103014758D01*
X71941000Y-103169507D01*
X71941000Y-103327293D01*
X71910219Y-103482042D01*
X71851643Y-103623457D01*
X71849837Y-103627816D01*
X71762178Y-103759008D01*
X71650608Y-103870578D01*
X71519416Y-103958237D01*
X71519415Y-103958238D01*
X71519414Y-103958238D01*
X71373642Y-104018619D01*
X71218893Y-104049400D01*
X71061107Y-104049400D01*
X70906358Y-104018619D01*
X70760586Y-103958238D01*
X70760585Y-103958238D01*
X70760584Y-103958237D01*
X70629392Y-103870578D01*
X70517822Y-103759008D01*
X70430163Y-103627816D01*
X70428357Y-103623457D01*
X70369781Y-103482042D01*
X70339000Y-103327293D01*
X70339000Y-103169507D01*
X70369781Y-103014758D01*
X70430162Y-102868986D01*
X70458743Y-102826211D01*
X70517822Y-102737792D01*
X70629392Y-102626222D01*
X70760584Y-102538563D01*
X70763034Y-102537548D01*
X70906358Y-102478181D01*
X71061107Y-102447400D01*
X71218893Y-102447400D01*
X71373642Y-102478181D01*
G37*
G36*
X79561000Y-104049400D02*
G01*
X77959000Y-104049400D01*
X77959000Y-102447400D01*
X79561000Y-102447400D01*
X79561000Y-104049400D01*
G37*
G36*
X105277228Y-99714903D02*
G01*
X105432100Y-99779053D01*
X105571481Y-99872185D01*
X105690015Y-99990719D01*
X105783147Y-100130100D01*
X105847297Y-100284972D01*
X105880000Y-100449384D01*
X105880000Y-100617016D01*
X105847297Y-100781428D01*
X105783147Y-100936300D01*
X105690015Y-101075681D01*
X105571481Y-101194215D01*
X105432100Y-101287347D01*
X105277228Y-101351497D01*
X105112816Y-101384200D01*
X104945184Y-101384200D01*
X104780772Y-101351497D01*
X104625900Y-101287347D01*
X104486519Y-101194215D01*
X104367985Y-101075681D01*
X104274853Y-100936300D01*
X104210703Y-100781428D01*
X104178000Y-100617016D01*
X104178000Y-100449384D01*
X104210703Y-100284972D01*
X104274853Y-100130100D01*
X104367985Y-99990719D01*
X104486519Y-99872185D01*
X104625900Y-99779053D01*
X104780772Y-99714903D01*
X104945184Y-99682200D01*
X105112816Y-99682200D01*
X105277228Y-99714903D01*
G37*
G36*
X110277228Y-99714903D02*
G01*
X110432100Y-99779053D01*
X110571481Y-99872185D01*
X110690015Y-99990719D01*
X110783147Y-100130100D01*
X110847297Y-100284972D01*
X110880000Y-100449384D01*
X110880000Y-100617016D01*
X110847297Y-100781428D01*
X110783147Y-100936300D01*
X110690015Y-101075681D01*
X110571481Y-101194215D01*
X110432100Y-101287347D01*
X110277228Y-101351497D01*
X110112816Y-101384200D01*
X109945184Y-101384200D01*
X109780772Y-101351497D01*
X109625900Y-101287347D01*
X109486519Y-101194215D01*
X109367985Y-101075681D01*
X109274853Y-100936300D01*
X109210703Y-100781428D01*
X109178000Y-100617016D01*
X109178000Y-100449384D01*
X109210703Y-100284972D01*
X109274853Y-100130100D01*
X109367985Y-99990719D01*
X109486519Y-99872185D01*
X109625900Y-99779053D01*
X109780772Y-99714903D01*
X109945184Y-99682200D01*
X110112816Y-99682200D01*
X110277228Y-99714903D01*
G37*
G36*
X113376059Y-99836460D02*
G01*
X113462307Y-99872185D01*
X113512732Y-99893072D01*
X113635735Y-99975260D01*
X113740340Y-100079865D01*
X113822528Y-100202868D01*
X113879140Y-100339541D01*
X113908000Y-100484633D01*
X113908000Y-100632567D01*
X113879140Y-100777659D01*
X113822528Y-100914332D01*
X113740340Y-101037335D01*
X113635735Y-101141940D01*
X113512732Y-101224128D01*
X113512731Y-101224129D01*
X113512730Y-101224129D01*
X113376059Y-101280740D01*
X113230968Y-101309600D01*
X113083032Y-101309600D01*
X112937941Y-101280740D01*
X112801270Y-101224129D01*
X112801269Y-101224129D01*
X112801268Y-101224128D01*
X112678265Y-101141940D01*
X112573660Y-101037335D01*
X112491472Y-100914332D01*
X112434860Y-100777659D01*
X112406000Y-100632567D01*
X112406000Y-100484633D01*
X112434860Y-100339541D01*
X112491472Y-100202868D01*
X112573660Y-100079865D01*
X112678265Y-99975260D01*
X112801268Y-99893072D01*
X112851694Y-99872185D01*
X112937941Y-99836460D01*
X113083032Y-99807600D01*
X113230968Y-99807600D01*
X113376059Y-99836460D01*
G37*
G36*
X120996059Y-99836460D02*
G01*
X121082307Y-99872185D01*
X121132732Y-99893072D01*
X121255735Y-99975260D01*
X121360340Y-100079865D01*
X121442528Y-100202868D01*
X121499140Y-100339541D01*
X121528000Y-100484633D01*
X121528000Y-100632567D01*
X121499140Y-100777659D01*
X121442528Y-100914332D01*
X121360340Y-101037335D01*
X121255735Y-101141940D01*
X121132732Y-101224128D01*
X121132731Y-101224129D01*
X121132730Y-101224129D01*
X120996059Y-101280740D01*
X120850968Y-101309600D01*
X120703032Y-101309600D01*
X120557941Y-101280740D01*
X120421270Y-101224129D01*
X120421269Y-101224129D01*
X120421268Y-101224128D01*
X120298265Y-101141940D01*
X120193660Y-101037335D01*
X120111472Y-100914332D01*
X120054860Y-100777659D01*
X120026000Y-100632567D01*
X120026000Y-100484633D01*
X120054860Y-100339541D01*
X120111472Y-100202868D01*
X120193660Y-100079865D01*
X120298265Y-99975260D01*
X120421268Y-99893072D01*
X120471694Y-99872185D01*
X120557941Y-99836460D01*
X120703032Y-99807600D01*
X120850968Y-99807600D01*
X120996059Y-99836460D01*
G37*
G36*
X128238119Y-96499520D02*
G01*
X128427280Y-96556901D01*
X128427283Y-96556902D01*
X128519733Y-96606318D01*
X128601612Y-96650083D01*
X128754415Y-96775485D01*
X128879817Y-96928288D01*
X128972999Y-97102619D01*
X129030380Y-97291780D01*
X129044900Y-97439206D01*
X129044900Y-97632793D01*
X129030380Y-97780219D01*
X129004975Y-97863967D01*
X128972998Y-97969383D01*
X128923582Y-98061833D01*
X128879817Y-98143712D01*
X128754415Y-98296515D01*
X128601612Y-98421917D01*
X128427281Y-98515099D01*
X128238120Y-98572480D01*
X128041400Y-98591855D01*
X127844681Y-98572480D01*
X127655520Y-98515099D01*
X127481188Y-98421917D01*
X127328385Y-98296515D01*
X127202983Y-98143712D01*
X127109801Y-97969381D01*
X127052420Y-97780220D01*
X127037900Y-97632794D01*
X127037900Y-97439207D01*
X127052420Y-97291781D01*
X127109801Y-97102620D01*
X127109802Y-97102617D01*
X127159218Y-97010167D01*
X127202983Y-96928288D01*
X127328385Y-96775485D01*
X127481188Y-96650083D01*
X127655519Y-96556901D01*
X127844680Y-96499520D01*
X128041400Y-96480145D01*
X128238119Y-96499520D01*
G37*
G36*
X130778119Y-96499520D02*
G01*
X130967280Y-96556901D01*
X130967283Y-96556902D01*
X131059733Y-96606318D01*
X131141612Y-96650083D01*
X131294415Y-96775485D01*
X131419817Y-96928288D01*
X131512999Y-97102619D01*
X131570380Y-97291780D01*
X131584900Y-97439206D01*
X131584900Y-97632793D01*
X131570380Y-97780219D01*
X131544975Y-97863967D01*
X131512998Y-97969383D01*
X131463582Y-98061833D01*
X131419817Y-98143712D01*
X131294415Y-98296515D01*
X131141612Y-98421917D01*
X130967281Y-98515099D01*
X130778120Y-98572480D01*
X130581400Y-98591855D01*
X130384681Y-98572480D01*
X130195520Y-98515099D01*
X130021188Y-98421917D01*
X129868385Y-98296515D01*
X129742983Y-98143712D01*
X129649801Y-97969381D01*
X129592420Y-97780220D01*
X129577900Y-97632794D01*
X129577900Y-97439207D01*
X129592420Y-97291781D01*
X129649801Y-97102620D01*
X129649802Y-97102617D01*
X129699218Y-97010167D01*
X129742983Y-96928288D01*
X129868385Y-96775485D01*
X130021188Y-96650083D01*
X130195519Y-96556901D01*
X130384680Y-96499520D01*
X130581400Y-96480145D01*
X130778119Y-96499520D01*
G37*
G36*
X126504900Y-98587000D02*
G01*
X124497900Y-98587000D01*
X124497900Y-96485000D01*
X126504900Y-96485000D01*
X126504900Y-98587000D01*
G37*
G36*
X134788259Y-97067860D02*
G01*
X134872175Y-97102619D01*
X134924932Y-97124472D01*
X135047935Y-97206660D01*
X135152540Y-97311265D01*
X135152541Y-97311267D01*
X135234729Y-97434270D01*
X135291340Y-97570941D01*
X135320200Y-97716032D01*
X135320200Y-97863968D01*
X135299232Y-97969381D01*
X135291340Y-98009059D01*
X135234728Y-98145732D01*
X135152540Y-98268735D01*
X135047935Y-98373340D01*
X134924932Y-98455528D01*
X134924931Y-98455529D01*
X134924930Y-98455529D01*
X134788259Y-98512140D01*
X134643168Y-98541000D01*
X134495232Y-98541000D01*
X134350141Y-98512140D01*
X134213470Y-98455529D01*
X134213469Y-98455529D01*
X134213468Y-98455528D01*
X134090465Y-98373340D01*
X133985860Y-98268735D01*
X133903672Y-98145732D01*
X133847060Y-98009059D01*
X133839168Y-97969381D01*
X133818200Y-97863968D01*
X133818200Y-97716032D01*
X133847060Y-97570941D01*
X133903671Y-97434270D01*
X133985859Y-97311267D01*
X133985860Y-97311265D01*
X134090465Y-97206660D01*
X134213468Y-97124472D01*
X134266226Y-97102619D01*
X134350141Y-97067860D01*
X134495232Y-97039000D01*
X134643168Y-97039000D01*
X134788259Y-97067860D01*
G37*
G36*
X142408259Y-97067860D02*
G01*
X142492175Y-97102619D01*
X142544932Y-97124472D01*
X142667935Y-97206660D01*
X142772540Y-97311265D01*
X142772541Y-97311267D01*
X142854729Y-97434270D01*
X142911340Y-97570941D01*
X142940200Y-97716032D01*
X142940200Y-97863968D01*
X142919232Y-97969381D01*
X142911340Y-98009059D01*
X142854728Y-98145732D01*
X142772540Y-98268735D01*
X142667935Y-98373340D01*
X142544932Y-98455528D01*
X142544931Y-98455529D01*
X142544930Y-98455529D01*
X142408259Y-98512140D01*
X142263168Y-98541000D01*
X142115232Y-98541000D01*
X141970141Y-98512140D01*
X141833470Y-98455529D01*
X141833469Y-98455529D01*
X141833468Y-98455528D01*
X141710465Y-98373340D01*
X141605860Y-98268735D01*
X141523672Y-98145732D01*
X141467060Y-98009059D01*
X141459168Y-97969381D01*
X141438200Y-97863968D01*
X141438200Y-97716032D01*
X141467060Y-97570941D01*
X141523671Y-97434270D01*
X141605859Y-97311267D01*
X141605860Y-97311265D01*
X141710465Y-97206660D01*
X141833468Y-97124472D01*
X141886226Y-97102619D01*
X141970141Y-97067860D01*
X142115232Y-97039000D01*
X142263168Y-97039000D01*
X142408259Y-97067860D01*
G37*
G36*
X106489600Y-95999400D02*
G01*
X104787600Y-95999400D01*
X104787600Y-94297400D01*
X106489600Y-94297400D01*
X106489600Y-95999400D01*
G37*
G36*
X108386828Y-94330103D02*
G01*
X108541700Y-94394253D01*
X108681081Y-94487385D01*
X108799615Y-94605919D01*
X108892747Y-94745300D01*
X108956897Y-94900172D01*
X108989600Y-95064584D01*
X108989600Y-95232216D01*
X108956897Y-95396628D01*
X108892747Y-95551500D01*
X108799615Y-95690881D01*
X108681081Y-95809415D01*
X108541700Y-95902547D01*
X108386828Y-95966697D01*
X108222416Y-95999400D01*
X108054784Y-95999400D01*
X107890372Y-95966697D01*
X107735500Y-95902547D01*
X107596119Y-95809415D01*
X107477585Y-95690881D01*
X107384453Y-95551500D01*
X107320303Y-95396628D01*
X107287600Y-95232216D01*
X107287600Y-95064584D01*
X107320303Y-94900172D01*
X107384453Y-94745300D01*
X107477585Y-94605919D01*
X107596119Y-94487385D01*
X107735500Y-94394253D01*
X107890372Y-94330103D01*
X108054784Y-94297400D01*
X108222416Y-94297400D01*
X108386828Y-94330103D01*
G37*
G36*
X70972628Y-94321703D02*
G01*
X71127500Y-94385853D01*
X71266881Y-94478985D01*
X71385415Y-94597519D01*
X71478547Y-94736900D01*
X71542697Y-94891772D01*
X71575400Y-95056184D01*
X71575400Y-95223816D01*
X71542697Y-95388228D01*
X71478547Y-95543100D01*
X71385415Y-95682481D01*
X71266881Y-95801015D01*
X71127500Y-95894147D01*
X70972628Y-95958297D01*
X70808216Y-95991000D01*
X70640584Y-95991000D01*
X70476172Y-95958297D01*
X70321300Y-95894147D01*
X70181919Y-95801015D01*
X70063385Y-95682481D01*
X69970253Y-95543100D01*
X69906103Y-95388228D01*
X69873400Y-95223816D01*
X69873400Y-95056184D01*
X69906103Y-94891772D01*
X69970253Y-94736900D01*
X70063385Y-94597519D01*
X70181919Y-94478985D01*
X70321300Y-94385853D01*
X70476172Y-94321703D01*
X70640584Y-94289000D01*
X70808216Y-94289000D01*
X70972628Y-94321703D01*
G37*
G36*
X81132628Y-94321703D02*
G01*
X81287500Y-94385853D01*
X81426881Y-94478985D01*
X81545415Y-94597519D01*
X81638547Y-94736900D01*
X81702697Y-94891772D01*
X81735400Y-95056184D01*
X81735400Y-95223816D01*
X81702697Y-95388228D01*
X81638547Y-95543100D01*
X81545415Y-95682481D01*
X81426881Y-95801015D01*
X81287500Y-95894147D01*
X81132628Y-95958297D01*
X80968216Y-95991000D01*
X80800584Y-95991000D01*
X80636172Y-95958297D01*
X80481300Y-95894147D01*
X80341919Y-95801015D01*
X80223385Y-95682481D01*
X80130253Y-95543100D01*
X80066103Y-95388228D01*
X80033400Y-95223816D01*
X80033400Y-95056184D01*
X80066103Y-94891772D01*
X80130253Y-94736900D01*
X80223385Y-94597519D01*
X80341919Y-94478985D01*
X80481300Y-94385853D01*
X80636172Y-94321703D01*
X80800584Y-94289000D01*
X80968216Y-94289000D01*
X81132628Y-94321703D01*
G37*
G36*
X68432628Y-94321703D02*
G01*
X68587500Y-94385853D01*
X68726881Y-94478985D01*
X68845415Y-94597519D01*
X68938547Y-94736900D01*
X69002697Y-94891772D01*
X69035400Y-95056184D01*
X69035400Y-95223816D01*
X69002697Y-95388228D01*
X68938547Y-95543100D01*
X68845415Y-95682481D01*
X68726881Y-95801015D01*
X68587500Y-95894147D01*
X68432628Y-95958297D01*
X68268216Y-95991000D01*
X68100584Y-95991000D01*
X67936172Y-95958297D01*
X67781300Y-95894147D01*
X67641919Y-95801015D01*
X67523385Y-95682481D01*
X67430253Y-95543100D01*
X67366103Y-95388228D01*
X67333400Y-95223816D01*
X67333400Y-95056184D01*
X67366103Y-94891772D01*
X67430253Y-94736900D01*
X67523385Y-94597519D01*
X67641919Y-94478985D01*
X67781300Y-94385853D01*
X67936172Y-94321703D01*
X68100584Y-94289000D01*
X68268216Y-94289000D01*
X68432628Y-94321703D01*
G37*
G36*
X83672628Y-94321703D02*
G01*
X83827500Y-94385853D01*
X83966881Y-94478985D01*
X84085415Y-94597519D01*
X84178547Y-94736900D01*
X84242697Y-94891772D01*
X84275400Y-95056184D01*
X84275400Y-95223816D01*
X84242697Y-95388228D01*
X84178547Y-95543100D01*
X84085415Y-95682481D01*
X83966881Y-95801015D01*
X83827500Y-95894147D01*
X83672628Y-95958297D01*
X83508216Y-95991000D01*
X83340584Y-95991000D01*
X83176172Y-95958297D01*
X83021300Y-95894147D01*
X82881919Y-95801015D01*
X82763385Y-95682481D01*
X82670253Y-95543100D01*
X82606103Y-95388228D01*
X82573400Y-95223816D01*
X82573400Y-95056184D01*
X82606103Y-94891772D01*
X82670253Y-94736900D01*
X82763385Y-94597519D01*
X82881919Y-94478985D01*
X83021300Y-94385853D01*
X83176172Y-94321703D01*
X83340584Y-94289000D01*
X83508216Y-94289000D01*
X83672628Y-94321703D01*
G37*
G36*
X78592628Y-94321703D02*
G01*
X78747500Y-94385853D01*
X78886881Y-94478985D01*
X79005415Y-94597519D01*
X79098547Y-94736900D01*
X79162697Y-94891772D01*
X79195400Y-95056184D01*
X79195400Y-95223816D01*
X79162697Y-95388228D01*
X79098547Y-95543100D01*
X79005415Y-95682481D01*
X78886881Y-95801015D01*
X78747500Y-95894147D01*
X78592628Y-95958297D01*
X78428216Y-95991000D01*
X78260584Y-95991000D01*
X78096172Y-95958297D01*
X77941300Y-95894147D01*
X77801919Y-95801015D01*
X77683385Y-95682481D01*
X77590253Y-95543100D01*
X77526103Y-95388228D01*
X77493400Y-95223816D01*
X77493400Y-95056184D01*
X77526103Y-94891772D01*
X77590253Y-94736900D01*
X77683385Y-94597519D01*
X77801919Y-94478985D01*
X77941300Y-94385853D01*
X78096172Y-94321703D01*
X78260584Y-94289000D01*
X78428216Y-94289000D01*
X78592628Y-94321703D01*
G37*
G36*
X86212628Y-94321703D02*
G01*
X86367500Y-94385853D01*
X86506881Y-94478985D01*
X86625415Y-94597519D01*
X86718547Y-94736900D01*
X86782697Y-94891772D01*
X86815400Y-95056184D01*
X86815400Y-95223816D01*
X86782697Y-95388228D01*
X86718547Y-95543100D01*
X86625415Y-95682481D01*
X86506881Y-95801015D01*
X86367500Y-95894147D01*
X86212628Y-95958297D01*
X86048216Y-95991000D01*
X85880584Y-95991000D01*
X85716172Y-95958297D01*
X85561300Y-95894147D01*
X85421919Y-95801015D01*
X85303385Y-95682481D01*
X85210253Y-95543100D01*
X85146103Y-95388228D01*
X85113400Y-95223816D01*
X85113400Y-95056184D01*
X85146103Y-94891772D01*
X85210253Y-94736900D01*
X85303385Y-94597519D01*
X85421919Y-94478985D01*
X85561300Y-94385853D01*
X85716172Y-94321703D01*
X85880584Y-94289000D01*
X86048216Y-94289000D01*
X86212628Y-94321703D01*
G37*
G36*
X76052628Y-94321703D02*
G01*
X76207500Y-94385853D01*
X76346881Y-94478985D01*
X76465415Y-94597519D01*
X76558547Y-94736900D01*
X76622697Y-94891772D01*
X76655400Y-95056184D01*
X76655400Y-95223816D01*
X76622697Y-95388228D01*
X76558547Y-95543100D01*
X76465415Y-95682481D01*
X76346881Y-95801015D01*
X76207500Y-95894147D01*
X76052628Y-95958297D01*
X75888216Y-95991000D01*
X75720584Y-95991000D01*
X75556172Y-95958297D01*
X75401300Y-95894147D01*
X75261919Y-95801015D01*
X75143385Y-95682481D01*
X75050253Y-95543100D01*
X74986103Y-95388228D01*
X74953400Y-95223816D01*
X74953400Y-95056184D01*
X74986103Y-94891772D01*
X75050253Y-94736900D01*
X75143385Y-94597519D01*
X75261919Y-94478985D01*
X75401300Y-94385853D01*
X75556172Y-94321703D01*
X75720584Y-94289000D01*
X75888216Y-94289000D01*
X76052628Y-94321703D01*
G37*
G36*
X88752628Y-94321703D02*
G01*
X88907500Y-94385853D01*
X89046881Y-94478985D01*
X89165415Y-94597519D01*
X89258547Y-94736900D01*
X89322697Y-94891772D01*
X89355400Y-95056184D01*
X89355400Y-95223816D01*
X89322697Y-95388228D01*
X89258547Y-95543100D01*
X89165415Y-95682481D01*
X89046881Y-95801015D01*
X88907500Y-95894147D01*
X88752628Y-95958297D01*
X88588216Y-95991000D01*
X88420584Y-95991000D01*
X88256172Y-95958297D01*
X88101300Y-95894147D01*
X87961919Y-95801015D01*
X87843385Y-95682481D01*
X87750253Y-95543100D01*
X87686103Y-95388228D01*
X87653400Y-95223816D01*
X87653400Y-95056184D01*
X87686103Y-94891772D01*
X87750253Y-94736900D01*
X87843385Y-94597519D01*
X87961919Y-94478985D01*
X88101300Y-94385853D01*
X88256172Y-94321703D01*
X88420584Y-94289000D01*
X88588216Y-94289000D01*
X88752628Y-94321703D01*
G37*
G36*
X73512628Y-94321703D02*
G01*
X73667500Y-94385853D01*
X73806881Y-94478985D01*
X73925415Y-94597519D01*
X74018547Y-94736900D01*
X74082697Y-94891772D01*
X74115400Y-95056184D01*
X74115400Y-95223816D01*
X74082697Y-95388228D01*
X74018547Y-95543100D01*
X73925415Y-95682481D01*
X73806881Y-95801015D01*
X73667500Y-95894147D01*
X73512628Y-95958297D01*
X73348216Y-95991000D01*
X73180584Y-95991000D01*
X73016172Y-95958297D01*
X72861300Y-95894147D01*
X72721919Y-95801015D01*
X72603385Y-95682481D01*
X72510253Y-95543100D01*
X72446103Y-95388228D01*
X72413400Y-95223816D01*
X72413400Y-95056184D01*
X72446103Y-94891772D01*
X72510253Y-94736900D01*
X72603385Y-94597519D01*
X72721919Y-94478985D01*
X72861300Y-94385853D01*
X73016172Y-94321703D01*
X73180584Y-94289000D01*
X73348216Y-94289000D01*
X73512628Y-94321703D01*
G37*
G36*
X91292628Y-94321703D02*
G01*
X91447500Y-94385853D01*
X91586881Y-94478985D01*
X91705415Y-94597519D01*
X91798547Y-94736900D01*
X91862697Y-94891772D01*
X91895400Y-95056184D01*
X91895400Y-95223816D01*
X91862697Y-95388228D01*
X91798547Y-95543100D01*
X91705415Y-95682481D01*
X91586881Y-95801015D01*
X91447500Y-95894147D01*
X91292628Y-95958297D01*
X91128216Y-95991000D01*
X90960584Y-95991000D01*
X90796172Y-95958297D01*
X90641300Y-95894147D01*
X90501919Y-95801015D01*
X90383385Y-95682481D01*
X90290253Y-95543100D01*
X90226103Y-95388228D01*
X90193400Y-95223816D01*
X90193400Y-95056184D01*
X90226103Y-94891772D01*
X90290253Y-94736900D01*
X90383385Y-94597519D01*
X90501919Y-94478985D01*
X90641300Y-94385853D01*
X90796172Y-94321703D01*
X90960584Y-94289000D01*
X91128216Y-94289000D01*
X91292628Y-94321703D01*
G37*
G36*
X65892628Y-94321703D02*
G01*
X66047500Y-94385853D01*
X66186881Y-94478985D01*
X66305415Y-94597519D01*
X66398547Y-94736900D01*
X66462697Y-94891772D01*
X66495400Y-95056184D01*
X66495400Y-95223816D01*
X66462697Y-95388228D01*
X66398547Y-95543100D01*
X66305415Y-95682481D01*
X66186881Y-95801015D01*
X66047500Y-95894147D01*
X65892628Y-95958297D01*
X65728216Y-95991000D01*
X65560584Y-95991000D01*
X65396172Y-95958297D01*
X65241300Y-95894147D01*
X65101919Y-95801015D01*
X64983385Y-95682481D01*
X64890253Y-95543100D01*
X64826103Y-95388228D01*
X64793400Y-95223816D01*
X64793400Y-95056184D01*
X64826103Y-94891772D01*
X64890253Y-94736900D01*
X64983385Y-94597519D01*
X65101919Y-94478985D01*
X65241300Y-94385853D01*
X65396172Y-94321703D01*
X65560584Y-94289000D01*
X65728216Y-94289000D01*
X65892628Y-94321703D01*
G37*
G36*
X63352628Y-94321703D02*
G01*
X63507500Y-94385853D01*
X63646881Y-94478985D01*
X63765415Y-94597519D01*
X63858547Y-94736900D01*
X63922697Y-94891772D01*
X63955400Y-95056184D01*
X63955400Y-95223816D01*
X63922697Y-95388228D01*
X63858547Y-95543100D01*
X63765415Y-95682481D01*
X63646881Y-95801015D01*
X63507500Y-95894147D01*
X63352628Y-95958297D01*
X63188216Y-95991000D01*
X63020584Y-95991000D01*
X62856172Y-95958297D01*
X62701300Y-95894147D01*
X62561919Y-95801015D01*
X62443385Y-95682481D01*
X62350253Y-95543100D01*
X62286103Y-95388228D01*
X62253400Y-95223816D01*
X62253400Y-95056184D01*
X62286103Y-94891772D01*
X62350253Y-94736900D01*
X62443385Y-94597519D01*
X62561919Y-94478985D01*
X62701300Y-94385853D01*
X62856172Y-94321703D01*
X63020584Y-94289000D01*
X63188216Y-94289000D01*
X63352628Y-94321703D01*
G37*
G36*
X60812628Y-94321703D02*
G01*
X60967500Y-94385853D01*
X61106881Y-94478985D01*
X61225415Y-94597519D01*
X61318547Y-94736900D01*
X61382697Y-94891772D01*
X61415400Y-95056184D01*
X61415400Y-95223816D01*
X61382697Y-95388228D01*
X61318547Y-95543100D01*
X61225415Y-95682481D01*
X61106881Y-95801015D01*
X60967500Y-95894147D01*
X60812628Y-95958297D01*
X60648216Y-95991000D01*
X60480584Y-95991000D01*
X60316172Y-95958297D01*
X60161300Y-95894147D01*
X60021919Y-95801015D01*
X59903385Y-95682481D01*
X59810253Y-95543100D01*
X59746103Y-95388228D01*
X59713400Y-95223816D01*
X59713400Y-95056184D01*
X59746103Y-94891772D01*
X59810253Y-94736900D01*
X59903385Y-94597519D01*
X60021919Y-94478985D01*
X60161300Y-94385853D01*
X60316172Y-94321703D01*
X60480584Y-94289000D01*
X60648216Y-94289000D01*
X60812628Y-94321703D01*
G37*
G36*
X58272628Y-94321703D02*
G01*
X58427500Y-94385853D01*
X58566881Y-94478985D01*
X58685415Y-94597519D01*
X58778547Y-94736900D01*
X58842697Y-94891772D01*
X58875400Y-95056184D01*
X58875400Y-95223816D01*
X58842697Y-95388228D01*
X58778547Y-95543100D01*
X58685415Y-95682481D01*
X58566881Y-95801015D01*
X58427500Y-95894147D01*
X58272628Y-95958297D01*
X58108216Y-95991000D01*
X57940584Y-95991000D01*
X57776172Y-95958297D01*
X57621300Y-95894147D01*
X57481919Y-95801015D01*
X57363385Y-95682481D01*
X57270253Y-95543100D01*
X57206103Y-95388228D01*
X57173400Y-95223816D01*
X57173400Y-95056184D01*
X57206103Y-94891772D01*
X57270253Y-94736900D01*
X57363385Y-94597519D01*
X57481919Y-94478985D01*
X57621300Y-94385853D01*
X57776172Y-94321703D01*
X57940584Y-94289000D01*
X58108216Y-94289000D01*
X58272628Y-94321703D01*
G37*
G36*
X93832628Y-94321703D02*
G01*
X93987500Y-94385853D01*
X94126881Y-94478985D01*
X94245415Y-94597519D01*
X94338547Y-94736900D01*
X94402697Y-94891772D01*
X94435400Y-95056184D01*
X94435400Y-95223816D01*
X94402697Y-95388228D01*
X94338547Y-95543100D01*
X94245415Y-95682481D01*
X94126881Y-95801015D01*
X93987500Y-95894147D01*
X93832628Y-95958297D01*
X93668216Y-95991000D01*
X93500584Y-95991000D01*
X93336172Y-95958297D01*
X93181300Y-95894147D01*
X93041919Y-95801015D01*
X92923385Y-95682481D01*
X92830253Y-95543100D01*
X92766103Y-95388228D01*
X92733400Y-95223816D01*
X92733400Y-95056184D01*
X92766103Y-94891772D01*
X92830253Y-94736900D01*
X92923385Y-94597519D01*
X93041919Y-94478985D01*
X93181300Y-94385853D01*
X93336172Y-94321703D01*
X93500584Y-94289000D01*
X93668216Y-94289000D01*
X93832628Y-94321703D01*
G37*
G36*
X143072800Y-91889189D02*
G01*
X143105852Y-91899215D01*
X143136303Y-91915492D01*
X143162999Y-91937401D01*
X143184908Y-91964097D01*
X143201185Y-91994548D01*
X143211211Y-92027600D01*
X143215200Y-92068103D01*
X143215200Y-93504297D01*
X143211211Y-93544800D01*
X143201185Y-93577852D01*
X143184908Y-93608303D01*
X143162999Y-93634999D01*
X143136303Y-93656908D01*
X143105852Y-93673185D01*
X143072800Y-93683211D01*
X143032297Y-93687200D01*
X141346103Y-93687200D01*
X141305600Y-93683211D01*
X141272548Y-93673185D01*
X141242097Y-93656908D01*
X141215401Y-93634999D01*
X141193492Y-93608303D01*
X141177215Y-93577852D01*
X141167189Y-93544800D01*
X141163200Y-93504297D01*
X141163200Y-92068103D01*
X141167189Y-92027600D01*
X141177215Y-91994548D01*
X141193492Y-91964097D01*
X141215401Y-91937401D01*
X141242097Y-91915492D01*
X141272548Y-91899215D01*
X141305600Y-91889189D01*
X141346103Y-91885200D01*
X143032297Y-91885200D01*
X143072800Y-91889189D01*
G37*
G36*
X142424642Y-89391718D02*
G01*
X142490827Y-89398237D01*
X142660666Y-89449757D01*
X142817191Y-89533422D01*
X142852929Y-89562752D01*
X142954386Y-89646014D01*
X143037648Y-89747471D01*
X143066978Y-89783209D01*
X143150643Y-89939734D01*
X143202163Y-90109573D01*
X143219559Y-90286200D01*
X143202163Y-90462827D01*
X143150643Y-90632666D01*
X143066978Y-90789191D01*
X143037648Y-90824929D01*
X142954386Y-90926386D01*
X142852929Y-91009648D01*
X142817191Y-91038978D01*
X142660666Y-91122643D01*
X142490827Y-91174163D01*
X142424642Y-91180682D01*
X142358460Y-91187200D01*
X142019940Y-91187200D01*
X141953758Y-91180682D01*
X141887573Y-91174163D01*
X141717734Y-91122643D01*
X141561209Y-91038978D01*
X141525471Y-91009648D01*
X141424014Y-90926386D01*
X141340752Y-90824929D01*
X141311422Y-90789191D01*
X141227757Y-90632666D01*
X141176237Y-90462827D01*
X141158841Y-90286200D01*
X141176237Y-90109573D01*
X141227757Y-89939734D01*
X141311422Y-89783209D01*
X141340752Y-89747471D01*
X141424014Y-89646014D01*
X141525471Y-89562752D01*
X141561209Y-89533422D01*
X141717734Y-89449757D01*
X141887573Y-89398237D01*
X141953758Y-89391718D01*
X142019940Y-89385200D01*
X142358460Y-89385200D01*
X142424642Y-89391718D01*
G37*
G36*
X142424643Y-86891719D02*
G01*
X142490827Y-86898237D01*
X142660666Y-86949757D01*
X142817191Y-87033422D01*
X142852929Y-87062752D01*
X142954386Y-87146014D01*
X143037648Y-87247471D01*
X143066978Y-87283209D01*
X143150643Y-87439734D01*
X143202163Y-87609573D01*
X143219559Y-87786200D01*
X143202163Y-87962827D01*
X143150643Y-88132666D01*
X143066978Y-88289191D01*
X143037648Y-88324929D01*
X142954386Y-88426386D01*
X142852929Y-88509648D01*
X142817191Y-88538978D01*
X142660666Y-88622643D01*
X142490827Y-88674163D01*
X142424642Y-88680682D01*
X142358460Y-88687200D01*
X142019940Y-88687200D01*
X141953758Y-88680682D01*
X141887573Y-88674163D01*
X141717734Y-88622643D01*
X141561209Y-88538978D01*
X141525471Y-88509648D01*
X141424014Y-88426386D01*
X141340752Y-88324929D01*
X141311422Y-88289191D01*
X141227757Y-88132666D01*
X141176237Y-87962827D01*
X141158841Y-87786200D01*
X141176237Y-87609573D01*
X141227757Y-87439734D01*
X141311422Y-87283209D01*
X141340752Y-87247471D01*
X141424014Y-87146014D01*
X141525471Y-87062752D01*
X141561209Y-87033422D01*
X141717734Y-86949757D01*
X141887573Y-86898237D01*
X141953757Y-86891719D01*
X142019940Y-86885200D01*
X142358460Y-86885200D01*
X142424643Y-86891719D01*
G37*
G36*
X142424642Y-84391718D02*
G01*
X142490827Y-84398237D01*
X142660666Y-84449757D01*
X142817191Y-84533422D01*
X142852929Y-84562752D01*
X142954386Y-84646014D01*
X143037648Y-84747471D01*
X143066978Y-84783209D01*
X143150643Y-84939734D01*
X143202163Y-85109573D01*
X143219559Y-85286200D01*
X143202163Y-85462827D01*
X143150643Y-85632666D01*
X143066978Y-85789191D01*
X143037648Y-85824929D01*
X142954386Y-85926386D01*
X142852929Y-86009648D01*
X142817191Y-86038978D01*
X142660666Y-86122643D01*
X142490827Y-86174163D01*
X142424643Y-86180681D01*
X142358460Y-86187200D01*
X142019940Y-86187200D01*
X141953757Y-86180681D01*
X141887573Y-86174163D01*
X141717734Y-86122643D01*
X141561209Y-86038978D01*
X141525471Y-86009648D01*
X141424014Y-85926386D01*
X141340752Y-85824929D01*
X141311422Y-85789191D01*
X141227757Y-85632666D01*
X141176237Y-85462827D01*
X141158841Y-85286200D01*
X141176237Y-85109573D01*
X141227757Y-84939734D01*
X141311422Y-84783209D01*
X141340752Y-84747471D01*
X141424014Y-84646014D01*
X141525471Y-84562752D01*
X141561209Y-84533422D01*
X141717734Y-84449757D01*
X141887573Y-84398237D01*
X141953758Y-84391718D01*
X142019940Y-84385200D01*
X142358460Y-84385200D01*
X142424642Y-84391718D01*
G37*
G36*
X108259828Y-80563303D02*
G01*
X108414700Y-80627453D01*
X108554081Y-80720585D01*
X108672615Y-80839119D01*
X108765747Y-80978500D01*
X108829897Y-81133372D01*
X108862600Y-81297784D01*
X108862600Y-81465416D01*
X108829897Y-81629828D01*
X108765747Y-81784700D01*
X108672615Y-81924081D01*
X108672612Y-81924084D01*
X108667219Y-81932155D01*
X108663937Y-81936155D01*
X108652386Y-81957766D01*
X108645273Y-81981215D01*
X108642871Y-82005601D01*
X108645273Y-82029987D01*
X108652386Y-82053436D01*
X108663937Y-82075047D01*
X108679482Y-82093989D01*
X108698424Y-82109534D01*
X108720035Y-82121085D01*
X108743484Y-82128198D01*
X108764864Y-82130304D01*
X108766352Y-82130600D01*
X108766353Y-82130600D01*
X108930765Y-82163303D01*
X109085637Y-82227453D01*
X109225018Y-82320585D01*
X109343552Y-82439119D01*
X109436684Y-82578500D01*
X109500834Y-82733372D01*
X109533537Y-82897784D01*
X109533537Y-83065416D01*
X109500834Y-83229828D01*
X109436684Y-83384700D01*
X109343552Y-83524081D01*
X109225018Y-83642615D01*
X109085637Y-83735747D01*
X108930765Y-83799897D01*
X108766353Y-83832600D01*
X108598721Y-83832600D01*
X108434309Y-83799897D01*
X108279437Y-83735747D01*
X108140056Y-83642615D01*
X108021522Y-83524081D01*
X107928390Y-83384700D01*
X107864240Y-83229828D01*
X107831537Y-83065416D01*
X107831537Y-82897784D01*
X107864240Y-82733372D01*
X107928390Y-82578500D01*
X108021522Y-82439119D01*
X108021525Y-82439116D01*
X108026918Y-82431045D01*
X108030200Y-82427045D01*
X108041751Y-82405434D01*
X108048864Y-82381985D01*
X108051266Y-82357599D01*
X108048864Y-82333213D01*
X108041751Y-82309764D01*
X108030200Y-82288153D01*
X108014655Y-82269211D01*
X107995713Y-82253666D01*
X107974102Y-82242115D01*
X107950653Y-82235002D01*
X107929273Y-82232896D01*
X107927785Y-82232600D01*
X107927784Y-82232600D01*
X107763372Y-82199897D01*
X107608500Y-82135747D01*
X107469119Y-82042615D01*
X107350585Y-81924081D01*
X107257453Y-81784700D01*
X107193303Y-81629828D01*
X107160600Y-81465416D01*
X107160600Y-81297784D01*
X107193303Y-81133372D01*
X107257453Y-80978500D01*
X107350585Y-80839119D01*
X107469119Y-80720585D01*
X107608500Y-80627453D01*
X107763372Y-80563303D01*
X107927784Y-80530600D01*
X108095416Y-80530600D01*
X108259828Y-80563303D01*
G37*
G36*
X119469000Y-83807400D02*
G01*
X117767000Y-83807400D01*
X117767000Y-82105400D01*
X119469000Y-82105400D01*
X119469000Y-83807400D01*
G37*
G36*
X116366228Y-82138103D02*
G01*
X116521100Y-82202253D01*
X116660481Y-82295385D01*
X116779015Y-82413919D01*
X116872147Y-82553300D01*
X116936297Y-82708172D01*
X116969000Y-82872584D01*
X116969000Y-83040216D01*
X116936297Y-83204628D01*
X116872147Y-83359500D01*
X116779015Y-83498881D01*
X116660481Y-83617415D01*
X116521100Y-83710547D01*
X116366228Y-83774697D01*
X116201816Y-83807400D01*
X116034184Y-83807400D01*
X115869772Y-83774697D01*
X115714900Y-83710547D01*
X115575519Y-83617415D01*
X115456985Y-83498881D01*
X115363853Y-83359500D01*
X115299703Y-83204628D01*
X115267000Y-83040216D01*
X115267000Y-82872584D01*
X115299703Y-82708172D01*
X115363853Y-82553300D01*
X115456985Y-82413919D01*
X115575519Y-82295385D01*
X115714900Y-82202253D01*
X115869772Y-82138103D01*
X116034184Y-82105400D01*
X116201816Y-82105400D01*
X116366228Y-82138103D01*
G37*
G36*
X128566731Y-79144211D02*
G01*
X128894492Y-79279974D01*
X129189470Y-79477072D01*
X129440328Y-79727930D01*
X129637426Y-80022908D01*
X129773189Y-80350669D01*
X129842400Y-80698616D01*
X129842400Y-81053384D01*
X129773189Y-81401331D01*
X129637426Y-81729092D01*
X129440328Y-82024070D01*
X129189470Y-82274928D01*
X128894492Y-82472026D01*
X128566731Y-82607789D01*
X128218784Y-82677000D01*
X127864016Y-82677000D01*
X127516069Y-82607789D01*
X127188308Y-82472026D01*
X126893330Y-82274928D01*
X126642472Y-82024070D01*
X126445374Y-81729092D01*
X126309611Y-81401331D01*
X126240400Y-81053384D01*
X126240400Y-80698616D01*
X126309611Y-80350669D01*
X126445374Y-80022908D01*
X126642472Y-79727930D01*
X126893330Y-79477072D01*
X127188308Y-79279974D01*
X127516069Y-79144211D01*
X127864016Y-79075000D01*
X128218784Y-79075000D01*
X128566731Y-79144211D01*
G37*
G36*
X105691663Y-80405601D02*
G01*
X105694065Y-80429987D01*
X105701178Y-80453436D01*
X105712729Y-80475047D01*
X105728274Y-80493989D01*
X105747216Y-80509534D01*
X105768827Y-80521085D01*
X105792276Y-80528198D01*
X105816662Y-80530600D01*
X106362600Y-80530600D01*
X106362600Y-82232600D01*
X104660600Y-82232600D01*
X104660600Y-80757599D01*
X104658198Y-80733213D01*
X104651085Y-80709764D01*
X104639534Y-80688153D01*
X104623989Y-80669211D01*
X104605047Y-80653666D01*
X104583436Y-80642115D01*
X104559987Y-80635002D01*
X104535601Y-80632600D01*
X103989663Y-80632600D01*
X103989663Y-78930600D01*
X105691663Y-78930600D01*
X105691663Y-80405601D01*
G37*
G36*
X68432628Y-79081703D02*
G01*
X68587500Y-79145853D01*
X68726881Y-79238985D01*
X68845415Y-79357519D01*
X68938547Y-79496900D01*
X69002697Y-79651772D01*
X69035400Y-79816184D01*
X69035400Y-79983816D01*
X69002697Y-80148228D01*
X68938547Y-80303100D01*
X68845415Y-80442481D01*
X68726881Y-80561015D01*
X68587500Y-80654147D01*
X68432628Y-80718297D01*
X68268216Y-80751000D01*
X68100584Y-80751000D01*
X67936172Y-80718297D01*
X67781300Y-80654147D01*
X67641919Y-80561015D01*
X67523385Y-80442481D01*
X67430253Y-80303100D01*
X67366103Y-80148228D01*
X67333400Y-79983816D01*
X67333400Y-79816184D01*
X67366103Y-79651772D01*
X67430253Y-79496900D01*
X67523385Y-79357519D01*
X67641919Y-79238985D01*
X67781300Y-79145853D01*
X67936172Y-79081703D01*
X68100584Y-79049000D01*
X68268216Y-79049000D01*
X68432628Y-79081703D01*
G37*
G36*
X76052628Y-79081703D02*
G01*
X76207500Y-79145853D01*
X76346881Y-79238985D01*
X76465415Y-79357519D01*
X76558547Y-79496900D01*
X76622697Y-79651772D01*
X76655400Y-79816184D01*
X76655400Y-79983816D01*
X76622697Y-80148228D01*
X76558547Y-80303100D01*
X76465415Y-80442481D01*
X76346881Y-80561015D01*
X76207500Y-80654147D01*
X76052628Y-80718297D01*
X75888216Y-80751000D01*
X75720584Y-80751000D01*
X75556172Y-80718297D01*
X75401300Y-80654147D01*
X75261919Y-80561015D01*
X75143385Y-80442481D01*
X75050253Y-80303100D01*
X74986103Y-80148228D01*
X74953400Y-79983816D01*
X74953400Y-79816184D01*
X74986103Y-79651772D01*
X75050253Y-79496900D01*
X75143385Y-79357519D01*
X75261919Y-79238985D01*
X75401300Y-79145853D01*
X75556172Y-79081703D01*
X75720584Y-79049000D01*
X75888216Y-79049000D01*
X76052628Y-79081703D01*
G37*
G36*
X65892628Y-79081703D02*
G01*
X66047500Y-79145853D01*
X66186881Y-79238985D01*
X66305415Y-79357519D01*
X66398547Y-79496900D01*
X66462697Y-79651772D01*
X66495400Y-79816184D01*
X66495400Y-79983816D01*
X66462697Y-80148228D01*
X66398547Y-80303100D01*
X66305415Y-80442481D01*
X66186881Y-80561015D01*
X66047500Y-80654147D01*
X65892628Y-80718297D01*
X65728216Y-80751000D01*
X65560584Y-80751000D01*
X65396172Y-80718297D01*
X65241300Y-80654147D01*
X65101919Y-80561015D01*
X64983385Y-80442481D01*
X64890253Y-80303100D01*
X64826103Y-80148228D01*
X64793400Y-79983816D01*
X64793400Y-79816184D01*
X64826103Y-79651772D01*
X64890253Y-79496900D01*
X64983385Y-79357519D01*
X65101919Y-79238985D01*
X65241300Y-79145853D01*
X65396172Y-79081703D01*
X65560584Y-79049000D01*
X65728216Y-79049000D01*
X65892628Y-79081703D01*
G37*
G36*
X78592628Y-79081703D02*
G01*
X78747500Y-79145853D01*
X78886881Y-79238985D01*
X79005415Y-79357519D01*
X79098547Y-79496900D01*
X79162697Y-79651772D01*
X79195400Y-79816184D01*
X79195400Y-79983816D01*
X79162697Y-80148228D01*
X79098547Y-80303100D01*
X79005415Y-80442481D01*
X78886881Y-80561015D01*
X78747500Y-80654147D01*
X78592628Y-80718297D01*
X78428216Y-80751000D01*
X78260584Y-80751000D01*
X78096172Y-80718297D01*
X77941300Y-80654147D01*
X77801919Y-80561015D01*
X77683385Y-80442481D01*
X77590253Y-80303100D01*
X77526103Y-80148228D01*
X77493400Y-79983816D01*
X77493400Y-79816184D01*
X77526103Y-79651772D01*
X77590253Y-79496900D01*
X77683385Y-79357519D01*
X77801919Y-79238985D01*
X77941300Y-79145853D01*
X78096172Y-79081703D01*
X78260584Y-79049000D01*
X78428216Y-79049000D01*
X78592628Y-79081703D01*
G37*
G36*
X63352628Y-79081703D02*
G01*
X63507500Y-79145853D01*
X63646881Y-79238985D01*
X63765415Y-79357519D01*
X63858547Y-79496900D01*
X63922697Y-79651772D01*
X63955400Y-79816184D01*
X63955400Y-79983816D01*
X63922697Y-80148228D01*
X63858547Y-80303100D01*
X63765415Y-80442481D01*
X63646881Y-80561015D01*
X63507500Y-80654147D01*
X63352628Y-80718297D01*
X63188216Y-80751000D01*
X63020584Y-80751000D01*
X62856172Y-80718297D01*
X62701300Y-80654147D01*
X62561919Y-80561015D01*
X62443385Y-80442481D01*
X62350253Y-80303100D01*
X62286103Y-80148228D01*
X62253400Y-79983816D01*
X62253400Y-79816184D01*
X62286103Y-79651772D01*
X62350253Y-79496900D01*
X62443385Y-79357519D01*
X62561919Y-79238985D01*
X62701300Y-79145853D01*
X62856172Y-79081703D01*
X63020584Y-79049000D01*
X63188216Y-79049000D01*
X63352628Y-79081703D01*
G37*
G36*
X81132628Y-79081703D02*
G01*
X81287500Y-79145853D01*
X81426881Y-79238985D01*
X81545415Y-79357519D01*
X81638547Y-79496900D01*
X81702697Y-79651772D01*
X81735400Y-79816184D01*
X81735400Y-79983816D01*
X81702697Y-80148228D01*
X81638547Y-80303100D01*
X81545415Y-80442481D01*
X81426881Y-80561015D01*
X81287500Y-80654147D01*
X81132628Y-80718297D01*
X80968216Y-80751000D01*
X80800584Y-80751000D01*
X80636172Y-80718297D01*
X80481300Y-80654147D01*
X80341919Y-80561015D01*
X80223385Y-80442481D01*
X80130253Y-80303100D01*
X80066103Y-80148228D01*
X80033400Y-79983816D01*
X80033400Y-79816184D01*
X80066103Y-79651772D01*
X80130253Y-79496900D01*
X80223385Y-79357519D01*
X80341919Y-79238985D01*
X80481300Y-79145853D01*
X80636172Y-79081703D01*
X80800584Y-79049000D01*
X80968216Y-79049000D01*
X81132628Y-79081703D01*
G37*
G36*
X60812628Y-79081703D02*
G01*
X60967500Y-79145853D01*
X61106881Y-79238985D01*
X61225415Y-79357519D01*
X61318547Y-79496900D01*
X61382697Y-79651772D01*
X61415400Y-79816184D01*
X61415400Y-79983816D01*
X61382697Y-80148228D01*
X61318547Y-80303100D01*
X61225415Y-80442481D01*
X61106881Y-80561015D01*
X60967500Y-80654147D01*
X60812628Y-80718297D01*
X60648216Y-80751000D01*
X60480584Y-80751000D01*
X60316172Y-80718297D01*
X60161300Y-80654147D01*
X60021919Y-80561015D01*
X59903385Y-80442481D01*
X59810253Y-80303100D01*
X59746103Y-80148228D01*
X59713400Y-79983816D01*
X59713400Y-79816184D01*
X59746103Y-79651772D01*
X59810253Y-79496900D01*
X59903385Y-79357519D01*
X60021919Y-79238985D01*
X60161300Y-79145853D01*
X60316172Y-79081703D01*
X60480584Y-79049000D01*
X60648216Y-79049000D01*
X60812628Y-79081703D01*
G37*
G36*
X83672628Y-79081703D02*
G01*
X83827500Y-79145853D01*
X83966881Y-79238985D01*
X84085415Y-79357519D01*
X84178547Y-79496900D01*
X84242697Y-79651772D01*
X84275400Y-79816184D01*
X84275400Y-79983816D01*
X84242697Y-80148228D01*
X84178547Y-80303100D01*
X84085415Y-80442481D01*
X83966881Y-80561015D01*
X83827500Y-80654147D01*
X83672628Y-80718297D01*
X83508216Y-80751000D01*
X83340584Y-80751000D01*
X83176172Y-80718297D01*
X83021300Y-80654147D01*
X82881919Y-80561015D01*
X82763385Y-80442481D01*
X82670253Y-80303100D01*
X82606103Y-80148228D01*
X82573400Y-79983816D01*
X82573400Y-79816184D01*
X82606103Y-79651772D01*
X82670253Y-79496900D01*
X82763385Y-79357519D01*
X82881919Y-79238985D01*
X83021300Y-79145853D01*
X83176172Y-79081703D01*
X83340584Y-79049000D01*
X83508216Y-79049000D01*
X83672628Y-79081703D01*
G37*
G36*
X58272628Y-79081703D02*
G01*
X58427500Y-79145853D01*
X58566881Y-79238985D01*
X58685415Y-79357519D01*
X58778547Y-79496900D01*
X58842697Y-79651772D01*
X58875400Y-79816184D01*
X58875400Y-79983816D01*
X58842697Y-80148228D01*
X58778547Y-80303100D01*
X58685415Y-80442481D01*
X58566881Y-80561015D01*
X58427500Y-80654147D01*
X58272628Y-80718297D01*
X58108216Y-80751000D01*
X57940584Y-80751000D01*
X57776172Y-80718297D01*
X57621300Y-80654147D01*
X57481919Y-80561015D01*
X57363385Y-80442481D01*
X57270253Y-80303100D01*
X57206103Y-80148228D01*
X57173400Y-79983816D01*
X57173400Y-79816184D01*
X57206103Y-79651772D01*
X57270253Y-79496900D01*
X57363385Y-79357519D01*
X57481919Y-79238985D01*
X57621300Y-79145853D01*
X57776172Y-79081703D01*
X57940584Y-79049000D01*
X58108216Y-79049000D01*
X58272628Y-79081703D01*
G37*
G36*
X86212628Y-79081703D02*
G01*
X86367500Y-79145853D01*
X86506881Y-79238985D01*
X86625415Y-79357519D01*
X86718547Y-79496900D01*
X86782697Y-79651772D01*
X86815400Y-79816184D01*
X86815400Y-79983816D01*
X86782697Y-80148228D01*
X86718547Y-80303100D01*
X86625415Y-80442481D01*
X86506881Y-80561015D01*
X86367500Y-80654147D01*
X86212628Y-80718297D01*
X86048216Y-80751000D01*
X85880584Y-80751000D01*
X85716172Y-80718297D01*
X85561300Y-80654147D01*
X85421919Y-80561015D01*
X85303385Y-80442481D01*
X85210253Y-80303100D01*
X85146103Y-80148228D01*
X85113400Y-79983816D01*
X85113400Y-79816184D01*
X85146103Y-79651772D01*
X85210253Y-79496900D01*
X85303385Y-79357519D01*
X85421919Y-79238985D01*
X85561300Y-79145853D01*
X85716172Y-79081703D01*
X85880584Y-79049000D01*
X86048216Y-79049000D01*
X86212628Y-79081703D01*
G37*
G36*
X91292628Y-79081703D02*
G01*
X91447500Y-79145853D01*
X91586881Y-79238985D01*
X91705415Y-79357519D01*
X91798547Y-79496900D01*
X91862697Y-79651772D01*
X91895400Y-79816184D01*
X91895400Y-79983816D01*
X91862697Y-80148228D01*
X91798547Y-80303100D01*
X91705415Y-80442481D01*
X91586881Y-80561015D01*
X91447500Y-80654147D01*
X91292628Y-80718297D01*
X91128216Y-80751000D01*
X90960584Y-80751000D01*
X90796172Y-80718297D01*
X90641300Y-80654147D01*
X90501919Y-80561015D01*
X90383385Y-80442481D01*
X90290253Y-80303100D01*
X90226103Y-80148228D01*
X90193400Y-79983816D01*
X90193400Y-79816184D01*
X90226103Y-79651772D01*
X90290253Y-79496900D01*
X90383385Y-79357519D01*
X90501919Y-79238985D01*
X90641300Y-79145853D01*
X90796172Y-79081703D01*
X90960584Y-79049000D01*
X91128216Y-79049000D01*
X91292628Y-79081703D01*
G37*
G36*
X94435400Y-80751000D02*
G01*
X92733400Y-80751000D01*
X92733400Y-79049000D01*
X94435400Y-79049000D01*
X94435400Y-80751000D01*
G37*
G36*
X70972628Y-79081703D02*
G01*
X71127500Y-79145853D01*
X71266881Y-79238985D01*
X71385415Y-79357519D01*
X71478547Y-79496900D01*
X71542697Y-79651772D01*
X71575400Y-79816184D01*
X71575400Y-79983816D01*
X71542697Y-80148228D01*
X71478547Y-80303100D01*
X71385415Y-80442481D01*
X71266881Y-80561015D01*
X71127500Y-80654147D01*
X70972628Y-80718297D01*
X70808216Y-80751000D01*
X70640584Y-80751000D01*
X70476172Y-80718297D01*
X70321300Y-80654147D01*
X70181919Y-80561015D01*
X70063385Y-80442481D01*
X69970253Y-80303100D01*
X69906103Y-80148228D01*
X69873400Y-79983816D01*
X69873400Y-79816184D01*
X69906103Y-79651772D01*
X69970253Y-79496900D01*
X70063385Y-79357519D01*
X70181919Y-79238985D01*
X70321300Y-79145853D01*
X70476172Y-79081703D01*
X70640584Y-79049000D01*
X70808216Y-79049000D01*
X70972628Y-79081703D01*
G37*
G36*
X73512628Y-79081703D02*
G01*
X73667500Y-79145853D01*
X73806881Y-79238985D01*
X73925415Y-79357519D01*
X74018547Y-79496900D01*
X74082697Y-79651772D01*
X74115400Y-79816184D01*
X74115400Y-79983816D01*
X74082697Y-80148228D01*
X74018547Y-80303100D01*
X73925415Y-80442481D01*
X73806881Y-80561015D01*
X73667500Y-80654147D01*
X73512628Y-80718297D01*
X73348216Y-80751000D01*
X73180584Y-80751000D01*
X73016172Y-80718297D01*
X72861300Y-80654147D01*
X72721919Y-80561015D01*
X72603385Y-80442481D01*
X72510253Y-80303100D01*
X72446103Y-80148228D01*
X72413400Y-79983816D01*
X72413400Y-79816184D01*
X72446103Y-79651772D01*
X72510253Y-79496900D01*
X72603385Y-79357519D01*
X72721919Y-79238985D01*
X72861300Y-79145853D01*
X73016172Y-79081703D01*
X73180584Y-79049000D01*
X73348216Y-79049000D01*
X73512628Y-79081703D01*
G37*
G36*
X88752628Y-79081703D02*
G01*
X88907500Y-79145853D01*
X89046881Y-79238985D01*
X89165415Y-79357519D01*
X89258547Y-79496900D01*
X89322697Y-79651772D01*
X89355400Y-79816184D01*
X89355400Y-79983816D01*
X89322697Y-80148228D01*
X89258547Y-80303100D01*
X89165415Y-80442481D01*
X89046881Y-80561015D01*
X88907500Y-80654147D01*
X88752628Y-80718297D01*
X88588216Y-80751000D01*
X88420584Y-80751000D01*
X88256172Y-80718297D01*
X88101300Y-80654147D01*
X87961919Y-80561015D01*
X87843385Y-80442481D01*
X87750253Y-80303100D01*
X87686103Y-80148228D01*
X87653400Y-79983816D01*
X87653400Y-79816184D01*
X87686103Y-79651772D01*
X87750253Y-79496900D01*
X87843385Y-79357519D01*
X87961919Y-79238985D01*
X88101300Y-79145853D01*
X88256172Y-79081703D01*
X88420584Y-79049000D01*
X88588216Y-79049000D01*
X88752628Y-79081703D01*
G37*
G36*
X88507200Y-77102600D02*
G01*
X86905200Y-77102600D01*
X86905200Y-75500600D01*
X88507200Y-75500600D01*
X88507200Y-77102600D01*
G37*
G36*
X95559842Y-75531381D02*
G01*
X95705614Y-75591762D01*
X95705616Y-75591763D01*
X95836808Y-75679422D01*
X95948378Y-75790992D01*
X96017920Y-75895070D01*
X96036038Y-75922186D01*
X96096419Y-76067958D01*
X96127200Y-76222707D01*
X96127200Y-76380493D01*
X96096419Y-76535242D01*
X96036038Y-76681014D01*
X96036037Y-76681016D01*
X95948378Y-76812208D01*
X95836808Y-76923778D01*
X95705616Y-77011437D01*
X95705615Y-77011438D01*
X95705614Y-77011438D01*
X95559842Y-77071819D01*
X95405093Y-77102600D01*
X95247307Y-77102600D01*
X95092558Y-77071819D01*
X94946786Y-77011438D01*
X94946785Y-77011438D01*
X94946784Y-77011437D01*
X94815592Y-76923778D01*
X94704022Y-76812208D01*
X94616363Y-76681016D01*
X94616362Y-76681014D01*
X94555981Y-76535242D01*
X94525200Y-76380493D01*
X94525200Y-76222707D01*
X94555981Y-76067958D01*
X94616362Y-75922186D01*
X94634480Y-75895070D01*
X94704022Y-75790992D01*
X94815592Y-75679422D01*
X94946784Y-75591763D01*
X94946786Y-75591762D01*
X95092558Y-75531381D01*
X95247307Y-75500600D01*
X95405093Y-75500600D01*
X95559842Y-75531381D01*
G37*
G36*
X83683459Y-75528660D02*
G01*
X83820132Y-75585272D01*
X83943135Y-75667460D01*
X84047740Y-75772065D01*
X84129928Y-75895068D01*
X84186540Y-76031741D01*
X84215400Y-76176833D01*
X84215400Y-76324767D01*
X84186540Y-76469859D01*
X84129928Y-76606532D01*
X84047740Y-76729535D01*
X83943135Y-76834140D01*
X83820132Y-76916328D01*
X83820131Y-76916329D01*
X83820130Y-76916329D01*
X83683459Y-76972940D01*
X83538368Y-77001800D01*
X83390432Y-77001800D01*
X83245341Y-76972940D01*
X83108670Y-76916329D01*
X83108669Y-76916329D01*
X83108668Y-76916328D01*
X82985665Y-76834140D01*
X82881060Y-76729535D01*
X82798872Y-76606532D01*
X82742260Y-76469859D01*
X82713400Y-76324767D01*
X82713400Y-76176833D01*
X82742260Y-76031741D01*
X82798872Y-75895068D01*
X82881060Y-75772065D01*
X82985665Y-75667460D01*
X83108668Y-75585272D01*
X83245341Y-75528660D01*
X83390432Y-75499800D01*
X83538368Y-75499800D01*
X83683459Y-75528660D01*
G37*
G36*
X76063459Y-75528660D02*
G01*
X76200132Y-75585272D01*
X76323135Y-75667460D01*
X76427740Y-75772065D01*
X76509928Y-75895068D01*
X76566540Y-76031741D01*
X76595400Y-76176833D01*
X76595400Y-76324767D01*
X76566540Y-76469859D01*
X76509928Y-76606532D01*
X76427740Y-76729535D01*
X76323135Y-76834140D01*
X76200132Y-76916328D01*
X76200131Y-76916329D01*
X76200130Y-76916329D01*
X76063459Y-76972940D01*
X75918368Y-77001800D01*
X75770432Y-77001800D01*
X75625341Y-76972940D01*
X75488670Y-76916329D01*
X75488669Y-76916329D01*
X75488668Y-76916328D01*
X75365665Y-76834140D01*
X75261060Y-76729535D01*
X75178872Y-76606532D01*
X75122260Y-76469859D01*
X75093400Y-76324767D01*
X75093400Y-76176833D01*
X75122260Y-76031741D01*
X75178872Y-75895068D01*
X75261060Y-75772065D01*
X75365665Y-75667460D01*
X75488668Y-75585272D01*
X75625341Y-75528660D01*
X75770432Y-75499800D01*
X75918368Y-75499800D01*
X76063459Y-75528660D01*
G37*
G36*
X71575664Y-75499800D02*
G01*
X71593059Y-75503260D01*
X71729732Y-75559872D01*
X71852735Y-75642060D01*
X71957340Y-75746665D01*
X72039528Y-75869668D01*
X72096140Y-76006341D01*
X72125000Y-76151433D01*
X72125000Y-76299367D01*
X72096140Y-76444459D01*
X72039528Y-76581132D01*
X71957340Y-76704135D01*
X71852735Y-76808740D01*
X71729732Y-76890928D01*
X71729731Y-76890929D01*
X71729730Y-76890929D01*
X71593059Y-76947540D01*
X71447968Y-76976400D01*
X71300032Y-76976400D01*
X71154941Y-76947540D01*
X71018270Y-76890929D01*
X71018269Y-76890929D01*
X71018268Y-76890928D01*
X70895265Y-76808740D01*
X70790660Y-76704135D01*
X70708472Y-76581132D01*
X70651860Y-76444459D01*
X70623000Y-76299367D01*
X70623000Y-76151433D01*
X70651860Y-76006341D01*
X70708472Y-75869668D01*
X70790660Y-75746665D01*
X70895265Y-75642060D01*
X71018268Y-75559872D01*
X71154941Y-75503260D01*
X71172336Y-75499800D01*
X71300032Y-75474400D01*
X71447968Y-75474400D01*
X71575664Y-75499800D01*
G37*
G36*
X63955664Y-75499800D02*
G01*
X63973059Y-75503260D01*
X64109732Y-75559872D01*
X64232735Y-75642060D01*
X64337340Y-75746665D01*
X64419528Y-75869668D01*
X64476140Y-76006341D01*
X64505000Y-76151433D01*
X64505000Y-76299367D01*
X64476140Y-76444459D01*
X64419528Y-76581132D01*
X64337340Y-76704135D01*
X64232735Y-76808740D01*
X64109732Y-76890928D01*
X64109731Y-76890929D01*
X64109730Y-76890929D01*
X63973059Y-76947540D01*
X63827968Y-76976400D01*
X63680032Y-76976400D01*
X63534941Y-76947540D01*
X63398270Y-76890929D01*
X63398269Y-76890929D01*
X63398268Y-76890928D01*
X63275265Y-76808740D01*
X63170660Y-76704135D01*
X63088472Y-76581132D01*
X63031860Y-76444459D01*
X63003000Y-76299367D01*
X63003000Y-76151433D01*
X63031860Y-76006341D01*
X63088472Y-75869668D01*
X63170660Y-75746665D01*
X63275265Y-75642060D01*
X63398268Y-75559872D01*
X63534941Y-75503260D01*
X63552336Y-75499800D01*
X63680032Y-75474400D01*
X63827968Y-75474400D01*
X63955664Y-75499800D01*
G37*
M02*
