M48
; DRILL file {KiCad (5.1.6-0-10_14)} date Friday, July 17, 2020 at 09:00:38 PM
; FORMAT={-:-/ absolute / inch / decimal}
; #@! TF.CreationDate,2020-07-17T21:00:38+10:00
; #@! TF.GenerationSoftware,Kicad,Pcbnew,(5.1.6-0-10_14)
; #@! TF.FileFunction,Plated,1,2,PTH
FMAT,2
INCH
T1C0.0157
T2C0.0276
T3C0.0295
T4C0.0315
T5C0.0374
T6C0.0394
T7C0.0433
%
G90
G05
T1
X2.702Y-4.109
X2.956Y-4.586
X3.195Y-4.007
X3.264Y-4.645
X3.318Y-4.853
X3.417Y-4.497
X3.531Y-4.644
X3.584Y-3.942
X3.5844Y-3.8318
X3.674Y-4.497
X3.95Y-3.922
X4.019Y-3.922
X4.8814Y-3.7232
T2
X2.8016Y-4.1515
X3.1016Y-4.1515
X2.8016Y-4.3247
X3.1016Y-4.3247
X2.8016Y-4.498
X3.1016Y-4.498
X2.51Y-3.001
X2.81Y-3.001
X5.298Y-3.85
X5.598Y-3.85
X4.455Y-3.959
X4.755Y-3.959
X2.986Y-3.002
X3.286Y-3.002
X2.802Y-4.585
X3.102Y-4.585
T3
X2.8008Y-4.4114
X3.1008Y-4.4114
X2.8008Y-4.2381
X3.1008Y-4.2381
X2.8008Y-4.0649
X3.1008Y-4.0649
X3.453Y-3.004
X3.753Y-3.004
T4
X4.1276Y-3.141
X4.154Y-3.204
X4.2524Y-3.204
X4.2788Y-3.267
X4.135Y-3.958
X4.3319Y-3.958
X4.5716Y-3.266
X4.67Y-3.266
X2.2844Y-3.1457
X2.2844Y-3.7457
X2.3844Y-3.1457
X2.3844Y-3.7457
X2.4844Y-3.1457
X2.4844Y-3.7457
X2.5844Y-3.1457
X2.5844Y-3.7457
X2.6844Y-3.1457
X2.6844Y-3.7457
X2.7844Y-3.1457
X2.7844Y-3.7457
X2.8844Y-3.1457
X2.8844Y-3.7457
X2.9844Y-3.1457
X2.9844Y-3.7457
X3.0844Y-3.1457
X3.0844Y-3.7457
X3.1844Y-3.1457
X3.1844Y-3.7457
X3.2844Y-3.1457
X3.2844Y-3.7457
X3.3844Y-3.1457
X3.3844Y-3.7457
X3.4844Y-3.1457
X3.4844Y-3.7457
X3.5844Y-3.1457
X3.5844Y-3.7457
X3.6844Y-3.1457
X3.6844Y-3.7457
X5.165Y-4.17
X5.165Y-4.3669
X4.159Y-3.746
X4.2574Y-3.746
X5.026Y-4.1731
X5.026Y-4.37
X2.612Y-4.6241
X2.612Y-4.821
X4.886Y-4.1731
X4.886Y-4.37
T5
X2.2991Y-4.073
X2.2987Y-4.35
X2.3971Y-4.35
X2.4956Y-4.35
X2.594Y-4.35
X5.598Y-3.3577
X5.598Y-3.4561
X5.598Y-3.5546
X5.598Y-3.653
X2.3976Y-4.073
X2.496Y-4.073
T6
X2.908Y-4.745
X3.0064Y-4.745
X3.323Y-4.1677
X3.323Y-4.2677
X3.423Y-4.1677
X3.423Y-4.2677
X3.523Y-4.1677
X3.523Y-4.2677
X3.623Y-4.1677
X3.623Y-4.2677
X3.723Y-4.1677
X3.723Y-4.2677
X3.823Y-4.1677
X3.823Y-4.2677
X3.923Y-4.1677
X3.923Y-4.2677
X4.023Y-4.1677
X4.023Y-4.2677
X4.123Y-4.1677
X4.123Y-4.2677
X4.223Y-4.1677
X4.223Y-4.2677
X4.323Y-4.1677
X4.323Y-4.2677
X4.423Y-4.1677
X4.423Y-4.2677
X4.523Y-4.1677
X4.523Y-4.2677
X4.623Y-4.1677
X4.623Y-4.2677
X4.723Y-4.1677
X4.723Y-4.2677
X2.3006Y-4.627
X2.399Y-4.627
T7
X5.598Y-4.127
X5.598Y-4.527
X4.941Y-3.84
X5.041Y-3.84
X5.141Y-3.84
X5.438Y-4.121
X5.438Y-4.521
T0
M30
