G04 #@! TF.GenerationSoftware,KiCad,Pcbnew,(5.1.6-0-10_14)*
G04 #@! TF.CreationDate,2020-07-17T21:00:32+10:00*
G04 #@! TF.ProjectId,pcb-v2,7063622d-7632-42e6-9b69-6361645f7063,rev?*
G04 #@! TF.SameCoordinates,Original*
G04 #@! TF.FileFunction,Copper,L1,Top*
G04 #@! TF.FilePolarity,Positive*
%FSLAX46Y46*%
G04 Gerber Fmt 4.6, Leading zero omitted, Abs format (unit mm)*
G04 Created by KiCad (PCBNEW (5.1.6-0-10_14)) date 2020-07-17 21:00:32*
%MOMM*%
%LPD*%
G01*
G04 APERTURE LIST*
G04 #@! TA.AperFunction,ComponentPad*
%ADD10R,1.700000X1.700000*%
G04 #@! TD*
G04 #@! TA.AperFunction,ComponentPad*
%ADD11O,1.700000X1.700000*%
G04 #@! TD*
G04 #@! TA.AperFunction,ComponentPad*
%ADD12C,1.400000*%
G04 #@! TD*
G04 #@! TA.AperFunction,ComponentPad*
%ADD13O,1.400000X1.400000*%
G04 #@! TD*
G04 #@! TA.AperFunction,ComponentPad*
%ADD14C,1.600000*%
G04 #@! TD*
G04 #@! TA.AperFunction,ComponentPad*
%ADD15R,1.600000X1.600000*%
G04 #@! TD*
G04 #@! TA.AperFunction,ComponentPad*
%ADD16R,2.200000X2.200000*%
G04 #@! TD*
G04 #@! TA.AperFunction,ComponentPad*
%ADD17O,2.200000X2.200000*%
G04 #@! TD*
G04 #@! TA.AperFunction,ComponentPad*
%ADD18R,1.500000X1.500000*%
G04 #@! TD*
G04 #@! TA.AperFunction,ComponentPad*
%ADD19O,1.500000X1.500000*%
G04 #@! TD*
G04 #@! TA.AperFunction,ComponentPad*
%ADD20O,1.700000X2.000000*%
G04 #@! TD*
G04 #@! TA.AperFunction,ComponentPad*
%ADD21O,1.600000X1.600000*%
G04 #@! TD*
G04 #@! TA.AperFunction,ComponentPad*
%ADD22O,1.905000X2.000000*%
G04 #@! TD*
G04 #@! TA.AperFunction,ComponentPad*
%ADD23R,1.905000X2.000000*%
G04 #@! TD*
G04 #@! TA.AperFunction,ComponentPad*
%ADD24O,1.700000X1.950000*%
G04 #@! TD*
G04 #@! TA.AperFunction,ComponentPad*
%ADD25O,1.950000X1.700000*%
G04 #@! TD*
G04 #@! TA.AperFunction,ViaPad*
%ADD26C,0.800000*%
G04 #@! TD*
G04 #@! TA.AperFunction,Conductor*
%ADD27C,0.800000*%
G04 #@! TD*
G04 #@! TA.AperFunction,Conductor*
%ADD28C,0.500000*%
G04 #@! TD*
G04 #@! TA.AperFunction,Conductor*
%ADD29C,0.250000*%
G04 #@! TD*
G04 #@! TA.AperFunction,Conductor*
%ADD30C,0.254000*%
G04 #@! TD*
G04 APERTURE END LIST*
D10*
X119964400Y-108400000D03*
D11*
X119964400Y-105860000D03*
X117424400Y-108400000D03*
X117424400Y-105860000D03*
X114884400Y-108400000D03*
X114884400Y-105860000D03*
X112344400Y-108400000D03*
X112344400Y-105860000D03*
X109804400Y-108400000D03*
X109804400Y-105860000D03*
X107264400Y-108400000D03*
X107264400Y-105860000D03*
X104724400Y-108400000D03*
X104724400Y-105860000D03*
X102184400Y-108400000D03*
X102184400Y-105860000D03*
X99644400Y-108400000D03*
X99644400Y-105860000D03*
X97104400Y-108400000D03*
X97104400Y-105860000D03*
X94564400Y-108400000D03*
X94564400Y-105860000D03*
X92024400Y-108400000D03*
X92024400Y-105860000D03*
X89484400Y-108400000D03*
X89484400Y-105860000D03*
X86944400Y-108400000D03*
X86944400Y-105860000D03*
X84404400Y-108400000D03*
X84404400Y-105860000D03*
D12*
X75844400Y-76250800D03*
D13*
X83464400Y-76250800D03*
D14*
X124104400Y-110998000D03*
X124104400Y-105998000D03*
D15*
X105511600Y-81381600D03*
D14*
X108011600Y-81381600D03*
D15*
X104840663Y-79781600D03*
D14*
X108682537Y-82981600D03*
D15*
X105638600Y-95148400D03*
D14*
X108138600Y-95148400D03*
X127660400Y-110998000D03*
X127660400Y-105998000D03*
X105029000Y-100533200D03*
X110029000Y-100533200D03*
X131191000Y-110918000D03*
X131191000Y-105918000D03*
D16*
X142189200Y-104825800D03*
D17*
X142189200Y-114985800D03*
X138125200Y-104673400D03*
D16*
X138125200Y-114833400D03*
D18*
X87706200Y-76301600D03*
D19*
X95326200Y-76301600D03*
X71140000Y-112048400D03*
D18*
X78760000Y-112048400D03*
X78760000Y-107648400D03*
D19*
X71140000Y-107648400D03*
X71140000Y-103248400D03*
D18*
X78760000Y-103248400D03*
D20*
X58434600Y-117525800D03*
G04 #@! TA.AperFunction,ComponentPad*
G36*
G01*
X61784600Y-116775800D02*
X61784600Y-118275800D01*
G75*
G02*
X61534600Y-118525800I-250000J0D01*
G01*
X60334600Y-118525800D01*
G75*
G02*
X60084600Y-118275800I0J250000D01*
G01*
X60084600Y-116775800D01*
G75*
G02*
X60334600Y-116525800I250000J0D01*
G01*
X61534600Y-116525800D01*
G75*
G02*
X61784600Y-116775800I0J-250000D01*
G01*
G37*
G04 #@! TD.AperFunction*
D14*
X66344800Y-122453400D03*
X66344800Y-117453400D03*
D15*
X93584400Y-79900000D03*
D21*
X60564400Y-95140000D03*
X91044400Y-79900000D03*
X63104400Y-95140000D03*
X88504400Y-79900000D03*
X65644400Y-95140000D03*
X85964400Y-79900000D03*
X68184400Y-95140000D03*
X83424400Y-79900000D03*
X70724400Y-95140000D03*
X80884400Y-79900000D03*
X73264400Y-95140000D03*
X78344400Y-79900000D03*
X75804400Y-95140000D03*
X75804400Y-79900000D03*
X78344400Y-95140000D03*
X73264400Y-79900000D03*
X80884400Y-95140000D03*
X70724400Y-79900000D03*
X83424400Y-95140000D03*
X68184400Y-79900000D03*
X85964400Y-95140000D03*
X65644400Y-79900000D03*
X88504400Y-95140000D03*
X63104400Y-79900000D03*
X91044400Y-95140000D03*
X60564400Y-79900000D03*
X93584400Y-95140000D03*
X58024400Y-79900000D03*
X58024400Y-95140000D03*
D13*
X71170800Y-116459000D03*
D12*
X78790800Y-116459000D03*
X63754000Y-76225400D03*
D13*
X71374000Y-76225400D03*
X78780000Y-105448400D03*
D12*
X71160000Y-105448400D03*
X71160000Y-109848400D03*
D13*
X78780000Y-109848400D03*
X142189200Y-97790000D03*
D12*
X134569200Y-97790000D03*
D13*
X78780000Y-114248400D03*
D12*
X71160000Y-114248400D03*
X113157000Y-100558600D03*
D13*
X120777000Y-100558600D03*
D22*
X130581400Y-97536000D03*
X128041400Y-97536000D03*
D23*
X125501400Y-97536000D03*
G04 #@! TA.AperFunction,ComponentPad*
G36*
G01*
X64248400Y-102729200D02*
X64248400Y-104179200D01*
G75*
G02*
X63998400Y-104429200I-250000J0D01*
G01*
X62798400Y-104429200D01*
G75*
G02*
X62548400Y-104179200I0J250000D01*
G01*
X62548400Y-102729200D01*
G75*
G02*
X62798400Y-102479200I250000J0D01*
G01*
X63998400Y-102479200D01*
G75*
G02*
X64248400Y-102729200I0J-250000D01*
G01*
G37*
G04 #@! TD.AperFunction*
D24*
X60898400Y-103454200D03*
X58398400Y-103454200D03*
G04 #@! TA.AperFunction,ComponentPad*
G36*
G01*
X66737600Y-109765000D02*
X66737600Y-111215000D01*
G75*
G02*
X66487600Y-111465000I-250000J0D01*
G01*
X65287600Y-111465000D01*
G75*
G02*
X65037600Y-111215000I0J250000D01*
G01*
X65037600Y-109765000D01*
G75*
G02*
X65287600Y-109515000I250000J0D01*
G01*
X66487600Y-109515000D01*
G75*
G02*
X66737600Y-109765000I0J-250000D01*
G01*
G37*
G04 #@! TD.AperFunction*
X63387600Y-110490000D03*
X60887600Y-110490000D03*
X58387600Y-110490000D03*
D25*
X142189200Y-85286200D03*
X142189200Y-87786200D03*
X142189200Y-90286200D03*
G04 #@! TA.AperFunction,ComponentPad*
G36*
G01*
X142914200Y-93636200D02*
X141464200Y-93636200D01*
G75*
G02*
X141214200Y-93386200I0J250000D01*
G01*
X141214200Y-92186200D01*
G75*
G02*
X141464200Y-91936200I250000J0D01*
G01*
X142914200Y-91936200D01*
G75*
G02*
X143164200Y-92186200I0J-250000D01*
G01*
X143164200Y-93386200D01*
G75*
G02*
X142914200Y-93636200I-250000J0D01*
G01*
G37*
G04 #@! TD.AperFunction*
D15*
X118618000Y-82956400D03*
D14*
X116118000Y-82956400D03*
G04 #@! TA.AperFunction,ComponentPad*
G36*
G01*
X73013200Y-121273000D02*
X73013200Y-119773000D01*
G75*
G02*
X73263200Y-119523000I250000J0D01*
G01*
X74463200Y-119523000D01*
G75*
G02*
X74713200Y-119773000I0J-250000D01*
G01*
X74713200Y-121273000D01*
G75*
G02*
X74463200Y-121523000I-250000J0D01*
G01*
X73263200Y-121523000D01*
G75*
G02*
X73013200Y-121273000I0J250000D01*
G01*
G37*
G04 #@! TD.AperFunction*
D20*
X76363200Y-120523000D03*
D26*
X93319600Y-114223800D03*
X84277200Y-123266200D03*
X89687400Y-117957600D03*
X82905600Y-117983000D03*
X86791800Y-114223800D03*
X91044400Y-97328190D03*
X91033600Y-100126800D03*
X123987560Y-94569280D03*
X75082400Y-116484400D03*
X68630800Y-104368600D03*
X100330000Y-99618800D03*
X81153000Y-101777800D03*
X102082600Y-99618800D03*
D27*
X142189200Y-102925800D02*
X142189200Y-104825800D01*
X139611790Y-100348390D02*
X142189200Y-102925800D01*
X125501400Y-99336000D02*
X126513790Y-100348390D01*
X126513790Y-100348390D02*
X139611790Y-100348390D01*
X125501400Y-97536000D02*
X125501400Y-99336000D01*
X118618000Y-82956400D02*
X118618000Y-93278618D01*
X122875382Y-97536000D02*
X125501400Y-97536000D01*
X118618000Y-93278618D02*
X122875382Y-97536000D01*
D28*
X92024400Y-109602081D02*
X92422320Y-110000001D01*
D27*
X116092800Y-82981600D02*
X116118000Y-82956400D01*
X108682537Y-82981600D02*
X116092800Y-82981600D01*
X84404400Y-108400000D02*
X86944400Y-105860000D01*
X86944400Y-99240000D02*
X91044400Y-95140000D01*
X86944400Y-105860000D02*
X86944400Y-99240000D01*
X97104400Y-108400000D02*
X97104400Y-109602081D01*
X92024400Y-108400000D02*
X92024400Y-109602081D01*
X108138600Y-90935800D02*
X116118000Y-82956400D01*
X108138600Y-95148400D02*
X108138600Y-90935800D01*
X58434600Y-123241767D02*
X60618033Y-125425200D01*
X58434600Y-117525800D02*
X58434600Y-123241767D01*
X76363200Y-120523000D02*
X79883000Y-120523000D01*
X82905600Y-117983000D02*
X82905600Y-117983000D01*
X80365600Y-120523000D02*
X82905600Y-117983000D01*
X79883000Y-120523000D02*
X80365600Y-120523000D01*
X83877201Y-123666199D02*
X83877201Y-123691599D01*
X84277200Y-123266200D02*
X83877201Y-123666199D01*
X83877201Y-123691599D02*
X82143600Y-125425200D01*
X60618033Y-125425200D02*
X82143600Y-125425200D01*
X70079340Y-107648400D02*
X71140000Y-107648400D01*
X69808541Y-107648400D02*
X70079340Y-107648400D01*
X66966941Y-110490000D02*
X69808541Y-107648400D01*
X65887600Y-110490000D02*
X66966941Y-110490000D01*
X86791800Y-114223800D02*
X93319600Y-114223800D01*
X89662000Y-117983000D02*
X89687400Y-117957600D01*
X82905600Y-117983000D02*
X89662000Y-117983000D01*
X97104400Y-110439000D02*
X97104400Y-108400000D01*
X93319600Y-114223800D02*
X97104400Y-110439000D01*
X93319600Y-110897281D02*
X93319600Y-114223800D01*
X92024400Y-109602081D02*
X93319600Y-110897281D01*
X91059000Y-100050600D02*
X91059000Y-100050600D01*
X91044400Y-100116000D02*
X91033600Y-100126800D01*
X91044400Y-97328190D02*
X91044400Y-100116000D01*
X108138600Y-83525537D02*
X108682537Y-82981600D01*
X108138600Y-95148400D02*
X108138600Y-83525537D01*
X128041400Y-95736000D02*
X128041400Y-97536000D01*
X126874680Y-94569280D02*
X123987560Y-94569280D01*
X128041400Y-95736000D02*
X126874680Y-94569280D01*
X140035190Y-95635990D02*
X142189200Y-97790000D01*
X128141410Y-95635990D02*
X140035190Y-95635990D01*
X128041400Y-95736000D02*
X128141410Y-95635990D01*
X138125200Y-109014400D02*
X138125200Y-114833400D01*
X130759200Y-101648400D02*
X138125200Y-109014400D01*
X125149291Y-101648400D02*
X130759200Y-101648400D01*
X106984798Y-98094598D02*
X121595489Y-98094598D01*
X121595489Y-98094598D02*
X125149291Y-101648400D01*
X105638600Y-96748400D02*
X106984798Y-98094598D01*
X105638600Y-95148400D02*
X105638600Y-96748400D01*
X105638600Y-81508600D02*
X105511600Y-81381600D01*
X105638600Y-95148400D02*
X105638600Y-81508600D01*
X105511600Y-80452537D02*
X104840663Y-79781600D01*
X105511600Y-81381600D02*
X105511600Y-80452537D01*
X104610664Y-77951601D02*
X104840663Y-78181600D01*
X104840663Y-78181600D02*
X104840663Y-79781600D01*
X85598000Y-77951601D02*
X86106000Y-77951601D01*
X85598000Y-77951601D02*
X104610664Y-77951601D01*
X83464400Y-77952600D02*
X83464400Y-76250800D01*
X83465399Y-77951601D02*
X83464400Y-77952600D01*
X85598000Y-77951601D02*
X83465399Y-77951601D01*
X123304401Y-105198001D02*
X124104400Y-105998000D01*
X122216399Y-104109999D02*
X123304401Y-105198001D01*
X119174401Y-104109999D02*
X122216399Y-104109999D01*
X117424400Y-105860000D02*
X119174401Y-104109999D01*
X124347600Y-102685200D02*
X126860401Y-105198001D01*
X118059200Y-102685200D02*
X124347600Y-102685200D01*
X126860401Y-105198001D02*
X127660400Y-105998000D01*
X114884400Y-105860000D02*
X118059200Y-102685200D01*
D28*
X112344400Y-102848600D02*
X112344400Y-105860000D01*
X112344400Y-101371200D02*
X112344400Y-105860000D01*
D27*
X112344400Y-102848600D02*
X112344400Y-108400000D01*
X110029000Y-100533200D02*
X112344400Y-102848600D01*
X112344400Y-101371200D02*
X113157000Y-100558600D01*
X112344400Y-108400000D02*
X112344400Y-101371200D01*
D28*
X128554790Y-113554210D02*
X131191000Y-110918000D01*
X82626200Y-116459000D02*
X78790800Y-116459000D01*
X131191000Y-110918000D02*
X128254790Y-113854210D01*
X104724400Y-108400000D02*
X96665400Y-116459000D01*
D27*
X96665400Y-116459000D02*
X107264400Y-105860000D01*
X78790800Y-116459000D02*
X96665400Y-116459000D01*
X125650000Y-116459000D02*
X131191000Y-110918000D01*
X78790800Y-116459000D02*
X125650000Y-116459000D01*
X60564400Y-96271370D02*
X62438630Y-98145600D01*
X60564400Y-95140000D02*
X60564400Y-96271370D01*
X62438630Y-98145600D02*
X62438630Y-98176430D01*
X62438630Y-98176430D02*
X67284600Y-103022400D01*
X78765400Y-116484400D02*
X78790800Y-116459000D01*
X75082400Y-116484400D02*
X78765400Y-116484400D01*
X67284600Y-103022400D02*
X68630800Y-104368600D01*
X67144799Y-123253399D02*
X66344800Y-122453400D01*
X80721200Y-123253399D02*
X67144799Y-123253399D01*
X137663390Y-119511610D02*
X84462989Y-119511610D01*
X84462989Y-119511610D02*
X80721200Y-123253399D01*
X142189200Y-114985800D02*
X137663390Y-119511610D01*
X75804400Y-76290800D02*
X75844400Y-76250800D01*
X75804400Y-79900000D02*
X75804400Y-76290800D01*
X71399400Y-76250800D02*
X71374000Y-76225400D01*
X75844400Y-76250800D02*
X71399400Y-76250800D01*
X87706200Y-74676000D02*
X87706200Y-76301600D01*
X87680999Y-74650799D02*
X87706200Y-74676000D01*
X77444401Y-74650799D02*
X87680999Y-74650799D01*
X75844400Y-76250800D02*
X77444401Y-74650799D01*
X65644400Y-95140000D02*
X74803000Y-104298600D01*
X77210000Y-112048400D02*
X78760000Y-112048400D01*
X74803000Y-109641400D02*
X77210000Y-112048400D01*
X74803000Y-104298600D02*
X74803000Y-109641400D01*
X78780000Y-112068400D02*
X78760000Y-112048400D01*
X78780000Y-114248400D02*
X78780000Y-112068400D01*
X77210000Y-107648400D02*
X78760000Y-107648400D01*
X76377800Y-106816200D02*
X77210000Y-107648400D01*
X76377800Y-103022400D02*
X76377800Y-106816200D01*
X68495400Y-95140000D02*
X76377800Y-103022400D01*
X68184400Y-95140000D02*
X68495400Y-95140000D01*
D29*
X78780000Y-104458451D02*
X78780000Y-105448400D01*
X78780000Y-103198009D02*
X78780000Y-104458451D01*
X70724400Y-95140000D02*
X72180600Y-96596200D01*
X76022200Y-100440209D02*
X78780000Y-103198009D01*
D27*
X78760000Y-103175600D02*
X78760000Y-103248400D01*
X70724400Y-95140000D02*
X78760000Y-103175600D01*
X78760000Y-105428400D02*
X78780000Y-105448400D01*
X78760000Y-103248400D02*
X78760000Y-105428400D01*
X70986800Y-90322400D02*
X97028000Y-90322400D01*
X60564400Y-79900000D02*
X70986800Y-90322400D01*
X97028000Y-90322400D02*
X98526600Y-91821000D01*
X98526600Y-104742200D02*
X99644400Y-105860000D01*
X98526600Y-91821000D02*
X98526600Y-104742200D01*
D28*
X96520000Y-101364400D02*
X96520000Y-101015800D01*
D27*
X92024400Y-105860000D02*
X96520000Y-101364400D01*
X96520000Y-101364400D02*
X96520000Y-93726000D01*
X96520000Y-93726000D02*
X95123000Y-92329000D01*
X70453400Y-92329000D02*
X58024400Y-79900000D01*
X95123000Y-92329000D02*
X70453400Y-92329000D01*
D29*
X88266281Y-110820200D02*
X86233000Y-110820200D01*
D28*
X100330000Y-99618800D02*
X100729999Y-99218801D01*
X76270000Y-87985600D02*
X76428600Y-87985600D01*
D27*
X89484400Y-109602081D02*
X88266281Y-110820200D01*
X89484400Y-108400000D02*
X89484400Y-109602081D01*
X81153000Y-109474000D02*
X81153000Y-101904800D01*
X82499200Y-110820200D02*
X81153000Y-109474000D01*
X88266281Y-110820200D02*
X82499200Y-110820200D01*
X76270000Y-87985600D02*
X68184400Y-79900000D01*
X100330000Y-90322400D02*
X100330000Y-99110800D01*
X100330000Y-99618800D02*
X100330000Y-99110800D01*
X97993200Y-87985600D02*
X100330000Y-90322400D01*
X97993200Y-87985600D02*
X76270000Y-87985600D01*
D29*
X102082600Y-99618800D02*
X102082600Y-99669600D01*
D27*
X76778000Y-85953600D02*
X100660200Y-85953600D01*
X70724400Y-79900000D02*
X76778000Y-85953600D01*
X102082600Y-87376000D02*
X102082600Y-99618800D01*
X100660200Y-85953600D02*
X102082600Y-87376000D01*
X66272400Y-117525800D02*
X66344800Y-117453400D01*
X60934600Y-117525800D02*
X66272400Y-117525800D01*
X71170800Y-117830600D02*
X73863200Y-120523000D01*
X71170800Y-116459000D02*
X71170800Y-117830600D01*
D29*
X58398400Y-102229200D02*
X56899399Y-100730199D01*
X58699400Y-76250800D02*
X56007000Y-78943200D01*
X58398400Y-102229200D02*
X58398400Y-103454200D01*
X56007000Y-99837800D02*
X58398400Y-102229200D01*
X56007000Y-78943200D02*
X56007000Y-99837800D01*
D28*
X55930800Y-79019400D02*
X58699400Y-76250800D01*
X58724800Y-76225400D02*
X58699400Y-76250800D01*
D27*
X59626998Y-76225400D02*
X58724800Y-76225400D01*
X63754000Y-76225400D02*
X59626998Y-76225400D01*
X55930800Y-79019400D02*
X58724800Y-76225400D01*
X55930800Y-99211600D02*
X58398400Y-101679200D01*
X58398400Y-101679200D02*
X58398400Y-103454200D01*
X55930800Y-79019400D02*
X55930800Y-99211600D01*
X63387600Y-108715000D02*
X63387600Y-110490000D01*
X67897051Y-107721400D02*
X64381200Y-107721400D01*
X64381200Y-107721400D02*
X63387600Y-108715000D01*
X70170051Y-105448400D02*
X67897051Y-107721400D01*
X71160000Y-105448400D02*
X70170051Y-105448400D01*
X67653441Y-112365010D02*
X70170051Y-109848400D01*
X62637610Y-112365010D02*
X67653441Y-112365010D01*
X60887600Y-110615000D02*
X62637610Y-112365010D01*
X70170051Y-109848400D02*
X71160000Y-109848400D01*
X60887600Y-110490000D02*
X60887600Y-110615000D01*
D29*
X62021000Y-114248400D02*
X70170051Y-114248400D01*
D28*
X70170051Y-114248400D02*
X71160000Y-114248400D01*
X60671000Y-114248400D02*
X70170051Y-114248400D01*
D27*
X60371000Y-114248400D02*
X60671000Y-114248400D01*
X58387600Y-112265000D02*
X60371000Y-114248400D01*
X58387600Y-110490000D02*
X58387600Y-112265000D01*
X60371000Y-114248400D02*
X71160000Y-114248400D01*
D30*
G36*
X143184880Y-80324960D02*
G01*
X138932920Y-80324960D01*
X138908144Y-80327400D01*
X138884319Y-80334627D01*
X138862363Y-80346363D01*
X138843117Y-80362157D01*
X138827323Y-80381403D01*
X138815587Y-80403359D01*
X138808360Y-80427184D01*
X138805922Y-80451256D01*
X138722802Y-95453200D01*
X122256293Y-95453200D01*
X121774216Y-94971124D01*
X121853957Y-83048689D01*
X121851683Y-83023897D01*
X121844615Y-83000025D01*
X121831002Y-82975010D01*
X120197264Y-80641098D01*
X125656400Y-80641098D01*
X125656400Y-81110902D01*
X125748054Y-81571679D01*
X125927840Y-82005721D01*
X126188850Y-82396349D01*
X126521051Y-82728550D01*
X126911679Y-82989560D01*
X127345721Y-83169346D01*
X127806498Y-83261000D01*
X128276302Y-83261000D01*
X128737079Y-83169346D01*
X129171121Y-82989560D01*
X129561749Y-82728550D01*
X129893950Y-82396349D01*
X130154960Y-82005721D01*
X130334746Y-81571679D01*
X130426400Y-81110902D01*
X130426400Y-80641098D01*
X130334746Y-80180321D01*
X130154960Y-79746279D01*
X129893950Y-79355651D01*
X129561749Y-79023450D01*
X129171121Y-78762440D01*
X128737079Y-78582654D01*
X128276302Y-78491000D01*
X127806498Y-78491000D01*
X127345721Y-78582654D01*
X126911679Y-78762440D01*
X126521051Y-79023450D01*
X126188850Y-79355651D01*
X125927840Y-79746279D01*
X125748054Y-80180321D01*
X125656400Y-80641098D01*
X120197264Y-80641098D01*
X119235122Y-79266610D01*
X119218915Y-79247712D01*
X119199332Y-79232339D01*
X119177126Y-79221081D01*
X119153151Y-79214372D01*
X119131080Y-79212440D01*
X119054987Y-79212440D01*
X114503358Y-79197614D01*
X114508121Y-75387200D01*
X143184880Y-75387200D01*
X143184880Y-80324960D01*
G37*
X143184880Y-80324960D02*
X138932920Y-80324960D01*
X138908144Y-80327400D01*
X138884319Y-80334627D01*
X138862363Y-80346363D01*
X138843117Y-80362157D01*
X138827323Y-80381403D01*
X138815587Y-80403359D01*
X138808360Y-80427184D01*
X138805922Y-80451256D01*
X138722802Y-95453200D01*
X122256293Y-95453200D01*
X121774216Y-94971124D01*
X121853957Y-83048689D01*
X121851683Y-83023897D01*
X121844615Y-83000025D01*
X121831002Y-82975010D01*
X120197264Y-80641098D01*
X125656400Y-80641098D01*
X125656400Y-81110902D01*
X125748054Y-81571679D01*
X125927840Y-82005721D01*
X126188850Y-82396349D01*
X126521051Y-82728550D01*
X126911679Y-82989560D01*
X127345721Y-83169346D01*
X127806498Y-83261000D01*
X128276302Y-83261000D01*
X128737079Y-83169346D01*
X129171121Y-82989560D01*
X129561749Y-82728550D01*
X129893950Y-82396349D01*
X130154960Y-82005721D01*
X130334746Y-81571679D01*
X130426400Y-81110902D01*
X130426400Y-80641098D01*
X130334746Y-80180321D01*
X130154960Y-79746279D01*
X129893950Y-79355651D01*
X129561749Y-79023450D01*
X129171121Y-78762440D01*
X128737079Y-78582654D01*
X128276302Y-78491000D01*
X127806498Y-78491000D01*
X127345721Y-78582654D01*
X126911679Y-78762440D01*
X126521051Y-79023450D01*
X126188850Y-79355651D01*
X125927840Y-79746279D01*
X125748054Y-80180321D01*
X125656400Y-80641098D01*
X120197264Y-80641098D01*
X119235122Y-79266610D01*
X119218915Y-79247712D01*
X119199332Y-79232339D01*
X119177126Y-79221081D01*
X119153151Y-79214372D01*
X119131080Y-79212440D01*
X119054987Y-79212440D01*
X114503358Y-79197614D01*
X114508121Y-75387200D01*
X143184880Y-75387200D01*
X143184880Y-80324960D01*
M02*
